<?xml version="1.0" standalone="no"?>
<!DOCTYPE svg PUBLIC "-//W3C//DTD SVG 1.1//EN" "http://www.w3.org/Graphics/SVG/1.1/DTD/svg11.dtd" >
<svg xmlns="http://www.w3.org/2000/svg">
    <defs>
        <font id="HelveticaNeueCyr-Medium">
            <font-face font-family="HelveticaNeueCyr-Medium"
                       units-per-em="1000"
                       ascent="714"
                       descent="-191"
                       bbox="-36 -214 1075 900"
                    />
            <missing-glyph horiz-adv-x="0" />
            
            <glyph glyph-name="!" unicode="&#x21;" horiz-adv-x="204" d=" M200,712 L200,508 L168,197 L109,197 L78,507 L78,712 M204,127 L204,0 L74,0 L74,127"/> 
            <glyph glyph-name="&quot;" unicode="&#x22;" horiz-adv-x="359" d=" M168,405 L103,405 L85,696 L186,696 M342,405 L276,405 L259,696 L359,696"/> 
            <glyph glyph-name="#" unicode="&#x23;" horiz-adv-x="549" d=" M163,0 L69,0 L105,195 L15,195 L15,275 L119,275 L146,420 L57,420 L57,500 L161,500 L198,696 L292,696 L256,500 L366,500 L402,696 L496,696 L460,500 L549,500 L549,420 L445,420 L418,275 L507,275 L507,195 L403,195 L367,0 L273,0 L309,195 L199,195 M324,275 L351,420 L241,420 L214,275"/> 
            <glyph glyph-name="$" unicode="&#x24;" horiz-adv-x="538" d=" M301,788 L301,716 Q401,714 459.5,664 Q518,614 518,531 L518,516 L410,516 L410,523 Q410,575 382.5,599.5 Q355,624 301,630 L301,410 Q538,371 538,198 Q538,104 472.5,45 Q407,-14 301,-14 L301,-100 L251,-100 L251,-14 Q146,-14 79.5,44 Q13,102 13,209 L13,218 L127,218 Q126,213 126,207 Q126,84 251,73 L251,317 Q155,331 92.5,378.5 Q30,426 30,514 Q30,608 91.5,657.5 Q153,707 251,716 L251,788 M251,421 L251,629 Q198,625 168,597.5 Q138,570 138,525 Q138,478 167.5,456 Q197,434 251,421 M301,306 L301,72 Q357,74 391,107 Q425,140 425,192 Q425,281 301,306"/> 
            <glyph glyph-name="%" unicode="&#x25;" horiz-adv-x="918" d=" M731,725 L337,-31 L259,-31 L655,725 M174,708 Q332,708 373,659.5 Q414,611 414,518 Q414,418 372.5,366 Q331,314 251,314 Q171,314 129,364.5 Q87,415 87,512 Q87,606 174,708 M251,643 Q175,643 175,507 Q175,378 250,378 Q326,378 326,517 Q326,643 251,643 M678,380 Q836,380 877,331.5 Q918,283 918,190 Q918,90 876.5,38 Q835,-14 755,-14 Q675,-14 633,36.5 Q591,87 591,184 Q591,278 678,380 M755,315 Q679,315 679,179 Q679,50 754,50 Q830,50 830,189 Q830,315 755,315"/> 
            <glyph glyph-name="&amp;" unicode="&#x26;" horiz-adv-x="662" d=" M580,340 Q571,234 522,165 L662,0 L522,0 L456,80 Q376,-15 256,-15 Q161,-15 97,40.5 Q33,96 33,191 Q33,261 78,315.5 Q123,370 195,403 Q124,490 124,560 Q124,629 173.5,673.5 Q223,718 300,718 Q375,718 423.5,673.5 Q472,629 472,560 Q472,445 346,378 L455,243 Q473,281 480,340 M289,447 Q372,496 372,557 Q372,590 351.5,611.5 Q331,633 300,633 Q268,633 247,613 Q226,593 226,563 Q226,526 285,452 M254,330 Q203,301 174,270.5 Q145,240 145,194 Q145,147 179,113.5 Q213,80 262,80 Q337,80 395,157"/> 
            <glyph glyph-name="'" unicode="&#x27;" horiz-adv-x="189" d=" M170,405 L108,405 L89,696 L189,696"/> 
            <glyph glyph-name="(" unicode="&#x28;" horiz-adv-x="286" d=" M285,717 Q224,601 194,495.5 Q164,390 164,259 Q164,28 286,-191 L194,-191 Q121,-72 85.5,29 Q50,130 50,257 Q50,511 194,717"/> 
            <glyph glyph-name=")" unicode="&#x29;" horiz-adv-x="227" d=" M227,257 Q227,130 191.5,29 Q156,-72 83,-191 L-9,-191 Q113,28 113,259 Q113,390 83,495.5 Q53,601 -8,717 L83,717 Q227,511 227,257"/> 
            <glyph glyph-name="*" unicode="&#x2A;" horiz-adv-x="352" d=" M352,582 L239,544 L308,450 L255,410 L184,509 L115,410 L60,450 L129,544 L18,582 L40,646 L151,604 L150,722 L219,722 L217,604 L328,646"/> 
            <glyph glyph-name="+" unicode="&#x2B;" horiz-adv-x="559" d=" M249,0 L249,210 L42,210 L42,305 L249,305 L249,515 L351,515 L351,305 L559,305 L559,210 L351,210 L351,0"/> 
            <glyph glyph-name="," unicode="&#x2C;" horiz-adv-x="207" d=" M207,135 L207,33 Q207,-45 177,-92.5 Q147,-140 71,-157 L71,-97 Q133,-78 136,0 L71,0 L71,135"/> 
            <glyph glyph-name="-" unicode="&#x2D;" horiz-adv-x="341" d=" M341,328 L341,222 L48,222 L48,328"/> 
            <glyph glyph-name="." unicode="&#x2E;" horiz-adv-x="207" d=" M207,135 L207,0 L71,0 L71,135"/> 
            <glyph glyph-name="/" unicode="&#x2F;" horiz-adv-x="370" d=" M370,729 L83,-17 L-18,-17 L271,729"/> 
            <glyph glyph-name="0" unicode="&#x30;" horiz-adv-x="520" d=" M276,706 Q520,706 520,343 Q520,168 459,77 Q398,-14 280,-14 Q36,-14 36,345 Q36,522 97,614 Q158,706 276,706 M277,610 Q247,610 225,598.5 Q203,587 189.5,563.5 Q176,540 168,516.5 Q160,493 156.5,457 Q153,421 152,397.5 Q151,374 151,338 Q151,203 181.5,142 Q212,81 279,81 Q305,81 325.5,91.5 Q346,102 359,117 Q372,132 381,157 Q390,182 394.5,202.5 Q399,223 401.5,253.5 Q404,284 404.5,300.5 Q405,317 405,343 Q405,377 404.5,395.5 Q404,414 401,451.5 Q398,489 389.5,512 Q381,535 367.5,560 Q354,585 331,597.5 Q308,610 277,610"/> 
            <glyph glyph-name="1" unicode="&#x31;" horiz-adv-x="377" d=" M377,704 L377,0 L255,0 L255,484 L81,484 L81,568 Q263,568 285,704"/> 
            <glyph glyph-name="2" unicode="&#x32;" horiz-adv-x="502" d=" M501,101 L501,0 L23,0 Q24,47 36,86 Q48,125 63.5,152.5 Q79,180 109.5,208.5 Q140,237 164.5,255.5 Q189,274 232,303 Q235,305 261.5,322.5 Q288,340 294,344.5 Q300,349 321,365.5 Q342,382 348.5,392 Q355,402 366.5,419 Q378,436 382,453.5 Q386,471 386,491 Q386,546 355.5,577.5 Q325,609 273,609 Q243,609 221,599.5 Q199,590 186.5,575 Q174,560 166,536.5 Q158,513 155.5,492 Q153,471 152,443 L41,443 L41,461 Q41,574 104.5,640.5 Q168,707 276,707 Q378,707 440,649.5 Q502,592 502,497 Q502,459 490,425 Q478,391 464.5,370 Q451,349 418,321 Q385,293 369,282 Q353,271 310,242 Q185,161 160,101"/> 
            <glyph glyph-name="3" unicode="&#x33;" horiz-adv-x="518" d=" M44,475 Q47,583 108,645 Q169,707 272,707 Q369,707 429,655 Q489,603 489,519 Q489,468 462.5,429.5 Q436,391 391,376 Q450,361 484,317.5 Q518,274 518,211 Q518,111 449,48 Q380,-15 270,-15 Q161,-15 94,48 Q27,111 27,215 L27,230 L137,230 Q142,83 273,83 Q331,83 365,116.5 Q399,150 399,208 Q399,269 360,297 Q321,325 259,325 Q240,325 223,324 L223,410 L233,410 Q264,410 286,413.5 Q308,417 330.5,426.5 Q353,436 365,457.5 Q377,479 377,511 Q377,557 348,585 Q319,613 270,613 Q158,613 153,475"/> 
            <glyph glyph-name="4" unicode="&#x34;" horiz-adv-x="522" d=" M522,262 L522,166 L433,166 L433,0 L323,0 L322,166 L25,166 L25,279 L325,706 L433,706 L433,262 M324,262 L324,565 L119,262"/> 
            <glyph glyph-name="5" unicode="&#x35;" horiz-adv-x="515" d=" M477,696 L477,597 L198,597 L166,417 Q213,467 298,467 Q395,467 455,404 Q515,341 515,238 Q515,127 445,57 Q375,-13 265,-13 Q161,-13 96.5,44.5 Q32,102 28,199 L141,199 Q145,145 180,113 Q215,81 268,81 Q330,81 364,120.5 Q398,160 398,232 Q398,302 363,340.5 Q328,379 266,379 Q191,379 149,316 L49,319 L116,696"/> 
            <glyph glyph-name="6" unicode="&#x36;" horiz-adv-x="523" d=" M507,522 L397,522 Q379,618 291,618 Q266,618 245,608 Q224,598 210,585 Q196,572 185,547.5 Q174,523 168.5,506.5 Q163,490 157.5,459 Q152,428 151,416 Q150,404 147,376 Q205,462 307,462 Q404,462 463.5,398 Q523,334 523,231 Q523,124 456.5,55 Q390,-14 287,-14 Q166,-14 101,77 Q36,168 36,337 Q36,512 105,610 Q174,708 296,708 Q385,708 441,659 Q497,610 507,522 M284,371 Q228,371 195,332.5 Q162,294 162,230 Q162,163 196.5,122 Q231,81 287,81 Q342,81 375.5,121 Q409,161 409,227 Q409,292 375,331.5 Q341,371 284,371"/> 
            <glyph glyph-name="7" unicode="&#x37;" horiz-adv-x="514" d=" M514,696 L514,600 Q405,491 335,324.5 Q265,158 259,0 L134,0 Q138,142 217,317.5 Q296,493 401,591 L37,591 L37,696"/> 
            <glyph glyph-name="8" unicode="&#x38;" horiz-adv-x="524" d=" M160,377 Q113,394 86.5,432.5 Q60,471 60,523 Q60,605 121.5,657 Q183,709 281,709 Q375,709 435,657.5 Q495,606 495,526 Q495,419 396,377 Q460,355 492,315 Q524,275 524,208 Q524,109 456,48.5 Q388,-12 277,-12 Q167,-12 99.5,47 Q32,106 32,202 Q32,267 65.5,312.5 Q99,358 160,377 M280,617 Q228,617 197.5,589.5 Q167,562 167,516 Q167,470 198,442 Q229,414 279,414 Q329,414 359,441.5 Q389,469 389,516 Q389,562 359.5,589.5 Q330,617 280,617 M277,332 Q219,332 183,297.5 Q147,263 147,208 Q147,148 183,113 Q219,78 281,78 Q341,78 375,111.5 Q409,145 409,205 Q409,263 373,297.5 Q337,332 277,332"/> 
            <glyph glyph-name="9" unicode="&#x39;" horiz-adv-x="516" d=" M44,174 L154,174 Q158,131 187,104 Q216,77 264,77 Q391,77 402,322 Q345,233 246,233 Q152,233 91,297.5 Q30,362 30,463 Q30,570 97,639.5 Q164,709 268,709 Q325,709 369.5,688 Q414,667 441,633.5 Q468,600 485.5,553.5 Q503,507 509.5,461 Q516,415 516,364 Q516,295 503.5,232.5 Q491,170 463.5,112.5 Q436,55 383,20.5 Q330,-14 258,-14 Q169,-14 108.5,39 Q48,92 44,174 M264,613 Q210,613 177.5,572.5 Q145,532 145,466 Q145,401 178,363 Q211,325 266,325 Q321,325 355,364 Q389,403 389,466 Q389,533 355,573 Q321,613 264,613"/> 
            <glyph glyph-name=":" unicode="&#x3A;" horiz-adv-x="207" d=" M207,135 L207,0 L71,0 L71,135 M207,511 L207,376 L71,376 L71,511"/> 
            <glyph glyph-name=";" unicode="&#x3B;" horiz-adv-x="207" d=" M207,511 L207,376 L71,376 L71,511 M207,135 L207,33 Q207,-45 177,-92.5 Q147,-140 71,-157 L71,-97 Q133,-78 136,0 L71,0 L71,135"/> 
            <glyph glyph-name="&lt;" unicode="&#x3C;" horiz-adv-x="559" d=" M42,208 L42,308 L559,507 L559,401 L171,258 L559,115 L559,7"/> 
            <glyph glyph-name="=" unicode="&#x3D;" horiz-adv-x="559" d=" M42,317 L42,413 L559,413 L559,317 M42,102 L42,198 L559,198 L559,102"/> 
            <glyph glyph-name="&gt;" unicode="&#x3E;" horiz-adv-x="559" d=" M559,208 L42,7 L42,115 L430,258 L42,401 L42,507 L559,308"/> 
            <glyph glyph-name="?" unicode="&#x3F;" horiz-adv-x="506" d=" M208,0 L208,127 L337,127 L337,0 M219,197 Q219,262 232.5,302.5 Q246,343 288,382 Q292,386 307.5,399.5 Q323,413 328,418 Q333,423 345,435.5 Q357,448 361.5,456 Q366,464 372.5,476.5 Q379,489 381.5,501.5 Q384,514 384,528 Q384,572 355,600 Q326,628 280,628 Q163,628 159,486 L44,486 Q49,597 109,661.5 Q169,726 282,726 Q383,726 444.5,671.5 Q506,617 506,528 Q506,495 499,469 Q492,443 474,420 Q456,397 442,383 Q428,369 397,343 Q347,300 337,280.5 Q327,261 327,197"/> 
            <glyph glyph-name="@" unicode="&#x40;" horiz-adv-x="771" d=" M695,129 L723,91 Q645,34 573,8.5 Q501,-17 417,-17 Q254,-17 141.5,83.5 Q29,184 29,346 Q29,509 145.5,619 Q262,729 432,729 Q581,729 676,645.5 Q771,562 771,430 Q771,325 708.5,246 Q646,167 563,167 Q526,167 503,187 Q480,207 480,240 Q480,248 483,262 Q433,167 344,167 Q283,167 245.5,209.5 Q208,252 208,320 Q208,417 268.5,489.5 Q329,562 409,562 Q494,562 523,491 L538,546 L620,546 L555,327 Q543,287 543,266 Q543,247 554,236.5 Q565,226 585,226 Q635,226 676,290.5 Q717,355 717,435 Q717,544 638,612 Q559,680 433,680 Q283,680 183,584 Q83,488 83,344 Q83,207 177.5,119.5 Q272,32 420,32 Q563,32 695,129 M493,436 Q493,465 475,484 Q457,503 429,503 Q392,503 362,468.5 Q332,434 317.5,392 Q303,350 303,315 Q303,274 320.5,250 Q338,226 369,226 Q405,226 435,266.5 Q465,307 479,354.5 Q493,402 493,436"/> 
            <glyph glyph-name="A" unicode="&#x41;" horiz-adv-x="675" d=" M400,713 L675,0 L541,0 L473,189 L191,189 L121,0 L-8,0 L267,713 M440,283 L334,583 L223,283"/> 
            <glyph glyph-name="B" unicode="&#x42;" horiz-adv-x="662" d=" M74,712 L399,712 Q511,712 570.5,663.5 Q630,615 630,533 Q630,482 602,441.5 Q574,401 528,383 Q590,368 626,323 Q662,278 662,210 Q662,116 599.5,58 Q537,0 437,0 L74,0 M196,611 L196,415 L366,415 Q438,415 472,437.5 Q506,460 506,513 Q506,573 470.5,592 Q435,611 370,611 M196,325 L196,102 L383,102 Q455,102 496,126 Q537,150 537,213 Q537,248 524.5,271.5 Q512,295 488.5,306 Q465,317 440,321 Q415,325 381,325"/> 
            <glyph glyph-name="C" unicode="&#x43;" horiz-adv-x="685" d=" M685,271 Q675,140 591.5,61.5 Q508,-17 375,-17 Q224,-17 133,85 Q42,187 42,356 Q42,458 81,541.5 Q120,625 198,676.5 Q276,728 381,728 Q494,728 578,665.5 Q662,603 679,485 L555,485 Q542,549 495,585.5 Q448,622 379,622 Q308,622 258.5,582 Q209,542 188.5,483.5 Q168,425 168,356 Q168,304 180,258 Q192,212 216,173.5 Q240,135 281.5,112 Q323,89 378,89 Q537,89 560,271"/> 
            <glyph glyph-name="D" unicode="&#x44;" horiz-adv-x="684" d=" M75,712 L346,712 Q420,712 476,696.5 Q532,681 579,639 Q684,545 684,368 Q684,179 584,79 Q540,35 488.5,17.5 Q437,0 353,0 L75,0 M199,606 L199,105 L346,105 Q463,105 511,173 Q559,241 559,362 Q559,477 505,541.5 Q451,606 338,606"/> 
            <glyph glyph-name="E" unicode="&#x45;" horiz-adv-x="593" d=" M587,712 L587,607 L198,607 L198,418 L559,418 L559,317 L198,317 L198,107 L593,107 L593,0 L74,0 L74,712"/> 
            <glyph glyph-name="F" unicode="&#x46;" horiz-adv-x="568" d=" M568,712 L568,606 L201,606 L201,412 L523,412 L523,311 L201,311 L201,0 L75,0 L75,712"/> 
            <glyph glyph-name="G" unicode="&#x47;" horiz-adv-x="700" d=" M700,381 L700,0 L620,0 L601,85 Q516,-17 379,-17 Q229,-17 135.5,85 Q42,187 42,351 Q42,512 136,619.5 Q230,727 390,727 Q506,727 592.5,662 Q679,597 691,485 L570,485 Q559,549 510.5,585.5 Q462,622 389,622 Q286,622 227,550 Q168,478 168,353 Q168,227 227.5,155.5 Q287,84 393,84 Q486,84 536.5,142 Q587,200 587,285 L395,285 L395,381"/> 
            <glyph glyph-name="H" unicode="&#x48;" horiz-adv-x="649" d=" M649,712 L649,0 L524,0 L524,320 L198,320 L198,0 L73,0 L73,712 L198,712 L198,429 L524,429 L524,712"/> 
            <glyph glyph-name="I" unicode="&#x49;" horiz-adv-x="202" d=" M202,712 L202,0 L76,0 L76,712"/> 
            <glyph glyph-name="J" unicode="&#x4A;" horiz-adv-x="470" d=" M470,712 L470,211 Q470,99 414.5,41 Q359,-17 251,-17 Q130,-17 77.5,44 Q25,105 25,223 L25,250 L144,250 L144,211 Q144,150 166,117.5 Q188,85 247,85 Q274,85 293,93.5 Q312,102 322,113.5 Q332,125 337.5,146 Q343,167 344,183.5 Q345,200 345,228 L345,712"/> 
            <glyph glyph-name="K" unicode="&#x4B;" horiz-adv-x="689" d=" M671,712 L386,428 L689,0 L534,0 L300,341 L198,239 L198,0 L74,0 L74,712 L198,712 L198,389 L513,712"/> 
            <glyph glyph-name="L" unicode="&#x4C;" horiz-adv-x="562" d=" M562,108 L562,0 L74,0 L74,712 L200,712 L200,108"/> 
            <glyph glyph-name="M" unicode="&#x4D;" horiz-adv-x="815" d=" M815,712 L815,0 L696,0 L696,549 L498,0 L396,0 L193,549 L193,0 L75,0 L75,712 L250,712 L449,155 L641,712"/> 
            <glyph glyph-name="N" unicode="&#x4E;" horiz-adv-x="652" d=" M652,712 L652,0 L523,0 L191,524 L191,0 L73,0 L73,712 L204,712 L532,187 L532,712"/> 
            <glyph glyph-name="O" unicode="&#x4F;" horiz-adv-x="722" d=" M382,729 Q533,729 627.5,625.5 Q722,522 722,356 Q722,190 627,86.5 Q532,-17 380,-17 Q227,-17 132.5,86 Q38,189 38,356 Q38,518 130.5,623.5 Q223,729 382,729 M380,624 Q282,624 223,551.5 Q164,479 164,358 Q164,234 222.5,161 Q281,88 382,88 Q479,88 537.5,161.5 Q596,235 596,357 Q596,479 537.5,551.5 Q479,624 380,624"/> 
            <glyph glyph-name="P" unicode="&#x50;" horiz-adv-x="634" d=" M77,712 L386,712 Q501,712 567.5,657.5 Q634,603 634,495 Q634,393 572,333.5 Q510,274 403,274 L202,274 L202,0 L77,0 M202,608 L202,375 L376,375 Q512,375 512,492 Q512,608 365,608"/> 
            <glyph glyph-name="Q" unicode="&#x51;" horiz-adv-x="721" d=" M713,2 L652,-66 L546,24 Q481,-17 377,-17 Q226,-17 132,85.5 Q38,188 38,354 Q38,519 133.5,623 Q229,727 381,727 Q531,727 626,623.5 Q721,520 721,357 Q721,272 694.5,200 Q668,128 620,82 M532,159 Q596,240 596,356 Q596,477 537,549.5 Q478,622 379,622 Q281,622 222.5,549.5 Q164,477 164,356 Q164,232 223,158.5 Q282,85 381,85 Q423,85 461,102 L388,164 L448,232"/> 
            <glyph glyph-name="R" unicode="&#x52;" horiz-adv-x="677" d=" M74,712 L411,712 Q517,712 584,664.5 Q651,617 651,514 Q651,450 620,404.5 Q589,359 533,339 Q559,333 578,321 Q597,309 607.5,295 Q618,281 625,259 Q632,237 634.5,220.5 Q637,204 639,177 Q640,170 641.5,150 Q643,130 643.5,123.5 Q644,117 645.5,101 Q647,85 648,78.5 Q649,72 651.5,59.5 Q654,47 656,40.5 Q658,34 661,25.5 Q664,17 668,11 Q672,5 677,0 L543,0 Q540,4 537.5,9.5 Q535,15 533,21.5 Q531,28 530,33.5 Q529,39 527.5,48.5 Q526,58 525.5,64 Q525,70 524,82 Q523,94 522.5,100 Q522,106 521,121 Q520,136 520,142 Q515,229 483.5,261.5 Q452,294 364,294 L198,294 L198,0 L74,0 M198,610 L198,387 L363,387 Q399,387 424,391 Q449,395 474.5,405.5 Q500,416 513.5,440 Q527,464 527,501 Q527,535 515,557.5 Q503,580 480.5,591 Q458,602 434.5,606 Q411,610 379,610"/> 
            <glyph glyph-name="S" unicode="&#x53;" horiz-adv-x="615" d=" M587,502 L468,502 Q457,627 313,627 Q249,627 213,600.5 Q177,574 177,528 Q177,485 203.5,469 Q230,453 321,430 Q345,423 358,420 Q477,390 520,366 Q615,315 615,207 Q615,160 599,122 Q583,84 556,58.5 Q529,33 492,16 Q455,-1 415,-8.5 Q375,-16 332,-16 Q198,-16 115,48 Q32,112 32,236 L155,236 Q155,158 206,120.5 Q257,83 339,83 Q411,83 451.5,112.5 Q492,142 492,195 Q492,229 470.5,250.5 Q449,272 424,281 Q399,290 337,306 Q330,308 326,309 Q193,343 151,365 Q64,410 58,504 Q58,511 58,518 Q58,613 129.5,669.5 Q201,726 321,726 Q437,726 510,671 Q583,616 587,502"/> 
            <glyph glyph-name="T" unicode="&#x54;" horiz-adv-x="586" d=" M586,712 L586,604 L359,604 L359,0 L234,0 L234,604 L7,604 L7,712"/> 
            <glyph glyph-name="U" unicode="&#x55;" horiz-adv-x="653" d=" M653,712 L653,276 Q653,-14 363,-14 Q212,-14 140.5,58 Q69,130 69,278 L69,712 L194,712 L194,253 Q194,89 365,89 Q417,89 450.5,103 Q484,117 500,146 Q516,175 522,208.5 Q528,242 528,292 L528,712"/> 
            <glyph glyph-name="V" unicode="&#x56;" horiz-adv-x="617" d=" M-5,712 L126,712 L306,149 L490,712 L617,712 L373,0 L234,0"/> 
            <glyph glyph-name="W" unicode="&#x57;" horiz-adv-x="940" d=" M8,712 L135,712 L265,170 L411,712 L538,712 L679,170 L813,712 L940,712 L743,0 L616,0 L472,547 L325,0 L196,0"/> 
            <glyph glyph-name="X" unicode="&#x58;" horiz-adv-x="649" d=" M-6,0 L248,369 L12,712 L161,712 L323,460 L492,712 L632,712 L396,369 L649,0 L497,0 L319,272 L138,0"/> 
            <glyph glyph-name="Y" unicode="&#x59;" horiz-adv-x="655" d=" M655,712 L387,283 L387,0 L264,0 L264,283 L-5,712 L139,712 L328,397 L515,712"/> 
            <glyph glyph-name="Z" unicode="&#x5A;" horiz-adv-x="604" d=" M592,712 L592,613 L177,108 L604,108 L604,0 L19,0 L19,103 L431,604 L49,604 L49,712"/> 
            <glyph glyph-name="[" unicode="&#x5B;" horiz-adv-x="295" d=" M295,720 L295,631 L177,631 L177,-91 L295,-91 L295,-180 L71,-180 L71,720"/> 
            <glyph glyph-name="\" unicode="&#x5C;" horiz-adv-x="351" d=" M259,-17 L3,729 L95,729 L351,-17"/> 
            <glyph glyph-name="]" unicode="&#x5D;" horiz-adv-x="225" d=" M1,720 L225,720 L225,-180 L1,-180 L1,-91 L119,-91 L119,631 L1,631"/> 
            <glyph glyph-name="^" unicode="&#x5E;" horiz-adv-x="520" d=" M80,271 L255,696 L345,696 L520,271 L417,271 L298,569 L183,271"/> 
            <glyph glyph-name="_" unicode="&#x5F;" horiz-adv-x="500" d=" M0,-125 L0,-75 L500,-75 L500,-125"/> 
            <glyph glyph-name="`" unicode="&#x60;" horiz-adv-x="189" d=" M98,727 L189,584 L106,584 L-36,727"/> 
            <glyph glyph-name="a" unicode="&#x61;" horiz-adv-x="546" d=" M55,357 Q73,532 281,532 Q378,532 435.5,494 Q493,456 493,376 L493,114 Q493,92 498.5,84 Q504,76 520,76 Q532,76 546,78 L546,-2 Q502,-13 472,-13 Q399,-13 388,49 Q323,-13 207,-13 Q127,-13 80,28.5 Q33,70 33,141 Q33,163 38,182 Q43,201 49.5,215 Q56,229 70.5,241 Q85,253 94.5,261 Q104,269 125.5,276 Q147,283 157.5,286.5 Q168,290 194,294 Q220,298 228.5,299.5 Q237,301 264,304 Q325,312 347,317.5 Q369,323 377,334 Q384,342 384,371 Q384,449 278,449 Q222,449 196,428 Q170,407 163,357 M383,259 Q370,252 353,246.5 Q336,241 325.5,239.5 Q315,238 292.5,235 Q270,232 263,231 Q242,228 230,225.5 Q218,223 200.5,217 Q183,211 173.5,202.5 Q164,194 157,179.5 Q150,165 150,145 Q150,108 174.5,88 Q199,68 243,68 Q319,68 360,109 Q383,132 383,198"/> 
            <glyph glyph-name="b" unicode="&#x62;" horiz-adv-x="571" d=" M174,712 L174,449 Q231,529 343,529 Q446,529 508.5,456 Q571,383 571,262 Q571,137 507,61.5 Q443,-14 337,-14 Q220,-14 168,70 L168,0 L61,0 L61,712 M314,438 Q247,439 208.5,390.5 Q170,342 170,257 Q170,174 208.5,126 Q247,78 314,78 Q378,78 417,127.5 Q456,177 456,260 Q456,342 417.5,390 Q379,438 314,438"/> 
            <glyph glyph-name="c" unicode="&#x63;" horiz-adv-x="528" d=" M528,195 Q516,100 452,43.5 Q388,-13 291,-13 Q175,-13 106,60.5 Q37,134 37,253 Q37,381 106.5,456.5 Q176,532 294,532 Q393,532 453.5,482 Q514,432 524,343 L411,343 Q401,392 371,418 Q341,444 295,444 Q229,444 191,394.5 Q153,345 153,259 Q153,173 189.5,125 Q226,77 291,77 Q342,77 374.5,107.5 Q407,138 416,195"/> 
            <glyph glyph-name="d" unicode="&#x64;" horiz-adv-x="549" d=" M549,712 L549,0 L442,0 L442,71 Q393,-14 277,-14 Q168,-14 103.5,60 Q39,134 39,259 Q39,383 102.5,456.5 Q166,530 273,530 Q382,530 437,449 L437,712 M294,438 Q229,438 191.5,390.5 Q154,343 154,261 Q154,176 192.5,127 Q231,78 298,78 Q365,78 402.5,126 Q440,174 440,259 Q440,344 401.5,391 Q363,438 294,438"/> 
            <glyph glyph-name="e" unicode="&#x65;" horiz-adv-x="529" d=" M522,161 Q503,77 439.5,30 Q376,-17 288,-17 Q171,-17 102.5,58.5 Q34,134 34,252 Q34,373 104.5,452 Q175,531 284,531 Q397,531 463,453.5 Q529,376 529,242 L529,230 L148,230 Q150,152 187,109.5 Q224,67 290,67 Q337,67 366.5,89.5 Q396,112 413,161 M415,306 Q410,371 374.5,408.5 Q339,446 283,446 Q227,446 192.5,410 Q158,374 150,306"/> 
            <glyph glyph-name="f" unicode="&#x66;" horiz-adv-x="316" d=" M316,713 L316,625 Q283,628 266,628 Q231,628 219,615.5 Q207,603 207,566 L207,516 L305,516 L305,433 L208,433 L208,0 L95,0 L95,433 L10,433 L10,516 L95,516 L95,557 Q95,638 130,677 Q165,716 248,716 Q282,716 316,713"/> 
            <glyph glyph-name="g" unicode="&#x67;" horiz-adv-x="533" d=" M533,516 L533,60 Q533,-73 476.5,-137 Q420,-201 285,-201 Q73,-201 54,-44 L168,-44 Q184,-121 288,-121 Q359,-121 391.5,-85 Q424,-49 424,31 L424,92 Q368,5 260,5 Q157,5 96.5,74.5 Q36,144 36,262 Q36,383 99,456.5 Q162,530 266,530 Q321,530 358,509.5 Q395,489 427,444 L427,516 M286,438 Q222,438 185.5,392 Q149,346 149,264 Q149,186 186.5,140 Q224,94 286,94 Q350,94 387,141.5 Q424,189 424,270 Q424,349 387.5,393.5 Q351,438 286,438"/> 
            <glyph glyph-name="h" unicode="&#x68;" horiz-adv-x="515" d=" M174,712 L174,445 Q231,529 337,529 Q421,529 468,483.5 Q515,438 515,350 L515,0 L400,0 L400,313 Q400,372 379.5,403 Q359,434 300,434 Q234,434 204,391 Q174,348 174,277 L174,0 L61,0 L61,712"/> 
            <glyph glyph-name="i" unicode="&#x69;" horiz-adv-x="177" d=" M177,715 L177,603 L63,603 L63,715 M177,516 L177,0 L63,0 L63,516"/> 
            <glyph glyph-name="j" unicode="&#x6A;" horiz-adv-x="181" d=" M181,516 L181,-27 Q181,-118 147.5,-158 Q114,-198 29,-198 Q14,-198 -19,-195 L-19,-102 Q7,-104 8,-104 Q40,-104 53.5,-95 Q67,-86 67,-57 L67,516 M181,716 L181,603 L67,603 L67,716"/> 
            <glyph glyph-name="k" unicode="&#x6B;" horiz-adv-x="536" d=" M518,516 L320,327 L536,0 L397,0 L240,249 L172,185 L172,0 L61,0 L61,712 L172,712 L172,311 L378,516"/> 
            <glyph glyph-name="l" unicode="&#x6C;" horiz-adv-x="177" d=" M177,712 L177,0 L64,0 L64,712"/> 
            <glyph glyph-name="m" unicode="&#x6D;" horiz-adv-x="811" d=" M169,516 L169,443 Q233,530 331,530 Q382,530 419.5,507 Q457,484 475,442 Q537,530 642,530 Q715,530 763,486.5 Q811,443 811,366 L811,0 L697,0 L697,317 Q697,372 678,403 Q659,434 605,434 Q550,434 521,399.5 Q492,365 492,303 L492,0 L378,0 L378,323 Q378,378 361.5,406 Q345,434 293,434 Q235,434 205,396.5 Q175,359 175,297 L175,0 L61,0 L61,516"/> 
            <glyph glyph-name="n" unicode="&#x6E;" horiz-adv-x="515" d=" M169,516 L169,440 Q231,530 340,530 Q428,530 471.5,482 Q515,434 515,344 L515,0 L401,0 L401,300 Q401,331 398,351.5 Q395,372 385.5,393 Q376,414 355,424.5 Q334,435 301,435 Q175,435 175,278 L175,0 L61,0 L61,516"/> 
            <glyph glyph-name="o" unicode="&#x6F;" horiz-adv-x="557" d=" M299,531 Q417,531 487,457 Q557,383 557,258 Q557,132 487.5,58 Q418,-16 299,-16 Q178,-16 107,58 Q36,132 36,258 Q36,383 107.5,457 Q179,531 299,531 M365,441 Q229,441 190,392 Q151,343 151,258 Q151,171 190,122 Q229,73 298,73 Q365,73 403.5,122.5 Q442,172 442,259 Q442,344 365,441"/> 
            <glyph glyph-name="p" unicode="&#x70;" horiz-adv-x="572" d=" M169,516 L169,447 Q221,531 337,531 Q444,531 508,456 Q572,381 572,256 Q572,134 509.5,60.5 Q447,-13 343,-13 Q233,-13 175,68 L175,-191 L62,-191 L62,516 M314,439 Q247,439 209,391 Q171,343 171,258 Q171,174 209.5,126 Q248,78 316,78 Q381,78 419,126 Q457,174 457,256 Q457,340 418.5,389.5 Q380,439 314,439"/> 
            <glyph glyph-name="q" unicode="&#x71;" horiz-adv-x="549" d=" M549,516 L549,-191 L437,-191 L437,69 Q376,-13 268,-13 Q163,-13 101,59.5 Q39,132 39,256 Q39,383 102.5,457 Q166,531 275,531 Q389,531 442,448 L442,516 M294,439 Q230,439 192,389.5 Q154,340 154,255 Q154,173 192,125.5 Q230,78 296,78 Q364,78 402,126.5 Q440,175 440,261 Q440,345 401.5,392 Q363,439 294,439"/> 
            <glyph glyph-name="r" unicode="&#x72;" horiz-adv-x="352" d=" M352,526 L352,417 Q322,420 312,420 Q163,420 163,227 L163,0 L50,0 L50,516 L157,516 L157,413 Q212,528 330,528"/> 
            <glyph glyph-name="s" unicode="&#x73;" horiz-adv-x="488" d=" M469,366 L360,366 Q350,448 248,448 Q204,448 180,432 Q156,416 156,388 Q156,379 157.5,372 Q159,365 163.5,359.5 Q168,354 171.5,350 Q175,346 184,342 Q193,338 198.5,335.5 Q204,333 217,329.5 Q230,326 237.5,324 Q245,322 262,318.5 Q279,315 288,313 Q327,304 344.5,299.5 Q362,295 395.5,281.5 Q429,268 445,253.5 Q461,239 474.5,213.5 Q488,188 488,155 Q488,77 427,31 Q366,-15 263,-15 Q153,-15 94,31 Q35,77 31,165 L140,165 Q149,68 265,68 Q315,68 345.5,88.5 Q376,109 376,143 Q376,160 368.5,172 Q361,184 344,192.5 Q327,201 311.5,205.5 Q296,210 270,216 Q266,217 264,217.5 Q262,218 259,218.5 Q256,219 253,220 Q143,247 113,262 Q42,296 42,375 Q42,448 98,489.5 Q154,531 253,531 Q348,531 408.5,490 Q469,449 469,366"/> 
            <glyph glyph-name="t" unicode="&#x74;" horiz-adv-x="312" d=" M312,516 L312,433 L208,433 L208,161 Q208,137 209,127.5 Q210,118 215,106.5 Q220,95 232.5,91 Q245,87 267,87 Q295,87 312,89 L312,-1 Q278,-5 235,-5 Q205,-5 182.5,-0.5 Q160,4 145,10 Q130,16 120,30.5 Q110,45 104.5,54.5 Q99,64 96.5,88 Q94,112 94,124.5 Q94,137 94,168 Q94,172 94,174.5 Q94,177 94,180.5 Q94,184 94,187 L94,433 L8,433 L8,516 L94,516 L94,671 L208,671 L208,516"/> 
            <glyph glyph-name="u" unicode="&#x75;" horiz-adv-x="513" d=" M513,516 L513,0 L406,0 L406,77 Q341,-14 236,-14 Q151,-14 105.5,34.5 Q60,83 60,174 L60,516 L174,516 L174,221 Q174,194 175,177.5 Q176,161 181.5,140.5 Q187,120 197.5,109 Q208,98 227.5,90 Q247,82 275,82 Q339,82 369,127.5 Q399,173 399,243 L399,516"/> 
            <glyph glyph-name="v" unicode="&#x76;" horiz-adv-x="509" d=" M8,516 L132,516 L264,119 L391,516 L509,516 L324,-1 L196,-1"/> 
            <glyph glyph-name="w" unicode="&#x77;" horiz-adv-x="765" d=" M12,516 L133,516 L235,129 L332,516 L447,516 L542,129 L649,516 L765,516 L602,0 L485,0 L388,383 L292,0 L172,0"/> 
            <glyph glyph-name="x" unicode="&#x78;" horiz-adv-x="532" d=" M198,271 L19,516 L157,516 L265,357 L378,516 L510,516 L335,277 L532,0 L395,0 L264,190 L137,0 L3,0"/> 
            <glyph glyph-name="y" unicode="&#x79;" horiz-adv-x="515" d=" M515,516 L324,10 Q321,3 313,-19.5 Q305,-42 302,-50 Q299,-58 290.5,-78 Q282,-98 277,-106 Q272,-114 262,-130 Q252,-146 243.5,-153 Q235,-160 222.5,-170.5 Q210,-181 197,-185.5 Q184,-190 167.5,-193.5 Q151,-197 132,-197 Q100,-197 53,-191 L53,-95 Q89,-102 113,-102 Q125,-102 135,-98.5 Q145,-95 153,-86.5 Q161,-78 167,-70.5 Q173,-63 178.5,-49.5 Q184,-36 187,-28.5 Q190,-21 195,-5 Q200,11 201,15 L3,516 L128,516 L266,136 L396,516"/> 
            <glyph glyph-name="z" unicode="&#x7A;" horiz-adv-x="477" d=" M462,516 L462,436 L170,92 L477,92 L477,0 L22,0 L22,87 L310,426 L42,426 L42,516"/> 
            <glyph glyph-name="{" unicode="&#x7B;" horiz-adv-x="320" d=" M-24,300 Q45,311 74.5,339.5 Q104,368 104,429 L104,505 Q104,621 156.5,668 Q209,715 320,720 L320,659 Q257,653 229.5,620 Q202,587 202,517 L202,459 Q202,372 173.5,326 Q145,280 63,270 Q148,257 175,213 Q202,169 202,80 L202,20 Q202,-45 229,-79.5 Q256,-114 320,-119 L320,-180 Q205,-174 154.5,-129 Q104,-84 104,33 L104,92 Q104,166 79,196 Q54,226 -24,239"/> 
            <glyph glyph-name="|" unicode="&#x7C;" horiz-adv-x="161" d=" M61,-214 L61,786 L161,786 L161,-214"/> 
            <glyph glyph-name="}" unicode="&#x7D;" horiz-adv-x="320" d=" M320,239 Q242,226 217,196 Q192,166 192,92 L192,33 Q192,-84 141.5,-129 Q91,-174 -24,-180 L-24,-119 Q40,-114 67,-79.5 Q94,-45 94,20 L94,80 Q94,169 121,213 Q148,257 233,270 Q151,280 122.5,326 Q94,372 94,459 L94,517 Q94,587 66.5,620 Q39,653 -24,659 L-24,720 Q87,715 139.5,668 Q192,621 192,505 L192,429 Q192,368 221.5,339.5 Q251,311 320,300"/> 
            <glyph glyph-name="~" unicode="&#x7E;" horiz-adv-x="567" d=" M567,340 Q559,261 522,219 Q485,177 424,177 Q391,177 290,209 Q283,212 261,219.5 Q239,227 225,232 Q211,237 193.5,241.5 Q176,246 165,246 Q139,246 120.5,226.5 Q102,207 98,175 L33,175 Q40,245 75,292 Q110,339 175,339 Q205,339 310,305 Q320,302 337.5,296 Q355,290 362.5,287.5 Q370,285 382,281 Q394,277 401.5,275.5 Q409,274 418.5,273 Q428,272 437,272 Q490,272 502,340"/> 
            <glyph glyph-name="£" unicode="&#xA3;" horiz-adv-x="554" d=" M218,383 L364,383 L364,320 L246,320 L246,319 Q258,283 258,250 Q258,208 235,170.5 Q212,133 158,89 Q213,114 259,114 Q292,114 335,102 Q386,87 409,87 Q464,87 503,126 L554,41 Q499,-14 403,-14 Q371,-14 288,10 Q231,27 193,27 Q151,27 90,-12 L36,69 Q145,143 145,237 Q145,272 122,320 L33,320 L33,383 L91,383 Q75,404 62,446.5 Q49,489 49,516 Q49,607 115.5,664 Q182,721 289,721 Q404,721 467.5,658 Q531,595 531,482 L418,482 Q413,623 289,623 Q237,623 203.5,591 Q170,559 170,510 Q170,502 171.5,493 Q173,484 174.5,477 Q176,470 180,459.5 Q184,449 186,444 Q188,439 194,427.5 Q200,416 201.5,413 Q203,410 210,397 Q217,384 218,383"/> 
            <glyph glyph-name="¤" unicode="&#xA4;" horiz-adv-x="522" d=" M34,160 L100,226 Q63,286 63,346 Q63,412 100,466 L34,532 L92,590 L158,524 Q207,561 278,561 Q340,561 399,524 L464,590 L522,532 L456,466 Q493,417 493,345 Q493,284 456,226 L522,160 L464,102 L398,168 Q348,131 279,131 Q212,131 158,168 L92,102 M331,474 Q225,474 187.5,436.5 Q150,399 150,346 Q150,293 187.5,255.5 Q225,218 278,218 Q331,218 368.5,255.5 Q406,293 406,346 Q406,399 331,474"/> 
            <glyph glyph-name="¦" unicode="&#xA6;" horiz-adv-x="161" d=" M61,-89 L61,161 L161,161 L161,-89 M61,411 L61,661 L161,661 L161,411"/> 
            <glyph glyph-name="§" unicode="&#xA7;" horiz-adv-x="531" d=" M479,541 L374,541 Q371,587 347,611 Q323,635 281,635 Q243,635 220,615.5 Q197,596 197,564 Q197,554 200,545 Q203,536 206.5,529 Q210,522 219,513.5 Q228,505 235,499.5 Q242,494 258,484.5 Q274,475 285,469 Q296,463 319,450.5 Q342,438 357,430 Q444,382 471,359 Q531,308 531,240 Q531,191 504,152 Q477,113 428,93 Q483,49 483,-22 Q483,-96 426.5,-143 Q370,-190 282,-190 Q185,-190 129,-139 Q73,-88 71,1 L178,1 Q189,-99 283,-99 Q322,-99 346.5,-78.5 Q371,-58 371,-25 Q371,13 334,40.5 Q297,68 175,133 Q128,157 100,177 Q72,197 48.5,233.5 Q25,270 25,316 Q25,367 53.5,406 Q82,445 130,459 Q86,504 86,561 Q86,633 141,678.5 Q196,724 283,724 Q372,724 425.5,674 Q479,624 479,541 M189,405 Q161,397 143.5,374.5 Q126,352 126,325 Q126,279 185,247 L366,145 Q393,154 410.5,176.5 Q428,199 428,224 Q428,268 372,300"/> 
            <glyph glyph-name="©" unicode="&#xA9;" horiz-adv-x="773" d=" M246,729 Q554,729 663.5,619.5 Q773,510 773,356 Q773,202 663.5,92.5 Q554,-17 400,-17 Q246,-17 136.5,92.5 Q27,202 27,356 Q27,510 246,729 M534,680 Q266,680 171,585 Q76,490 76,356 Q76,222 171,127 Q266,32 400,32 Q534,32 629,127 Q724,222 724,356 Q724,490 534,680 M585,288 Q578,223 528.5,180.5 Q479,138 410,138 Q321,138 262.5,200.5 Q204,263 204,357 Q204,453 259.5,515 Q315,577 401,577 Q475,577 527,533 Q579,489 583,422 L507,422 Q499,464 471.5,488 Q444,512 403,512 Q350,512 318,470 Q286,428 286,360 Q286,288 319,245.5 Q352,203 408,203 Q490,203 509,288"/> 
            <glyph glyph-name="«" unicode="&#xAB;" horiz-adv-x="402" d=" M402,441 L402,337 L307,265 L402,191 L402,88 L247,209 L247,319 M207,441 L207,339 L110,266 L207,191 L207,87 L50,211 L50,319"/> 
            <glyph glyph-name="¬" unicode="&#xAC;" horiz-adv-x="559" d=" M42,317 L42,413 L559,413 L559,102 L461,102 L461,317"/> 
            <glyph glyph-name="®" unicode="&#xAE;" horiz-adv-x="387" d=" M122,729 Q276,729 331,674.5 Q386,620 386,543 Q387,466 331.5,411 Q276,356 199,356 Q122,356 67.5,411 Q13,466 13,543 Q13,620 122,729 M263,697 Q135,697 90,652 Q45,607 45,543 Q45,479 90,433.5 Q135,388 199,388 Q263,388 308,433.5 Q353,479 353,543 Q353,607 263,697 M122,646 L195,646 Q286,646 286,586 Q286,550 249,537 Q268,530 275,515.5 Q282,501 283,469 Q283,454 288,441 L242,441 Q238,453 238,469 Q237,500 228,509 Q219,518 190,518 L168,518 L168,441 L122,441 M168,554 L193,554 Q239,554 239,582 Q239,609 193,609 L168,609"/> 
            <glyph glyph-name="°" unicode="&#xB0;" horiz-adv-x="361" d=" M133,706 Q267,706 314,659 Q361,612 361,545 Q361,478 314,431 Q267,384 200,384 Q133,384 86,431 Q39,478 39,545 Q39,612 133,706 M233,624 Q167,624 144,601 Q121,578 121,545 Q121,513 144,489.5 Q167,466 200,466 Q233,466 256,489.5 Q279,513 279,545 Q279,578 233,624"/> 
            <glyph glyph-name="±" unicode="&#xB1;" horiz-adv-x="559" d=" M249,115 L249,273 L42,273 L42,369 L249,369 L249,531 L351,531 L351,369 L559,369 L559,273 L351,273 L351,115 M42,-16 L42,79 L559,79 L559,-16"/> 
            <glyph glyph-name="µ" unicode="&#xB5;" horiz-adv-x="519" d=" M56,-191 L56,516 L170,516 L170,287 Q170,181 185,142 Q209,76 281,76 Q314,76 337.5,90 Q361,104 374,124 Q387,144 394,174.5 Q401,205 403,230 Q405,255 405,287 L405,516 L519,516 L519,0 L422,0 L422,71 Q393,29 360.5,9 Q328,-11 279,-11 Q235,-11 207.5,8 Q180,27 170,45 L170,-191"/> 
            <glyph glyph-name="¶" unicode="&#xB6;" horiz-adv-x="569" d=" M569,635 L515,635 L515,-182 L422,-182 L422,635 L311,635 L311,-182 L217,-182 L217,249 Q123,256 70,315.5 Q17,375 17,471 Q17,582 87,647 Q157,712 277,712 L569,712"/> 
            <glyph glyph-name="·" unicode="&#xB7;" horiz-adv-x="207" d=" M207,358 L207,223 L71,223 L71,358"/> 
            <glyph glyph-name="»" unicode="&#xBB;" horiz-adv-x="413" d=" M256,442 L413,317 L413,209 L256,88 L256,190 L352,262 L256,338 M61,441 L215,319 L215,210 L61,90 L61,191 L156,263 L61,337"/> 
            <glyph glyph-name="÷" unicode="&#xF7;" horiz-adv-x="559" d=" M42,210 L42,305 L559,305 L559,210 M241,9 L241,139 L359,139 L359,9 M241,376 L241,506 L359,506 L359,376"/> 
            <glyph glyph-name="ƒ" unicode="&#x192;" horiz-adv-x="501" d=" M440,438 L425,358 L324,358 L262,28 Q242,-82 202.5,-125.5 Q163,-169 59,-169 Q45,-169 0,-166 L15,-77 Q31,-78 54,-78 Q68,-78 80,-75 Q92,-72 99.5,-69 Q107,-66 114,-57 Q121,-48 124.5,-44 Q128,-40 132,-26 Q136,-12 137.5,-8 Q139,-4 142,14 Q145,32 146,36 L208,358 L116,358 L131,438 L223,438 L243,546 Q260,637 304,676 Q348,715 436,715 Q463,715 501,712 L484,623 Q463,625 444,625 Q405,625 387,606.5 Q369,588 358,537 L338,438"/> 
            <glyph glyph-name="Ё" unicode="&#x401;" horiz-adv-x="593" d=" M587,712 L587,607 L198,607 L198,418 L559,418 L559,317 L198,317 L198,107 L593,107 L593,0 L74,0 L74,712 M484,881 L484,773 L373,773 L373,881 M285,881 L285,773 L173,773 L173,881"/> 
            <glyph glyph-name="Ђ" unicode="&#x402;" horiz-adv-x="752" d=" M752,160 Q752,38 681.5,-41.5 Q611,-121 508,-121 Q498,-121 474,-119 L474,-24 Q540,-24 583.5,27 Q627,78 627,163 Q627,249 590,296.5 Q553,344 482,344 Q415,344 377,296 Q339,248 339,163 L339,0 L214,0 L214,604 L8,604 L8,712 L586,712 L586,604 L339,604 L339,361 Q395,442 501,442 Q618,442 685,364.5 Q752,287 752,160"/> 
            <glyph glyph-name="Ѓ" unicode="&#x403;" horiz-adv-x="559" d=" M201,0 L76,0 L76,712 L559,712 L559,604 L201,604 M431,900 L296,757 L214,757 L299,900"/> 
            <glyph glyph-name="Є" unicode="&#x404;" horiz-adv-x="682" d=" M682,239 Q664,122 582,52.5 Q500,-17 376,-17 Q225,-17 134,85 Q43,187 43,356 Q43,458 82,541.5 Q121,625 199,676.5 Q277,728 382,728 Q492,728 574.5,669 Q657,610 678,498 L553,498 Q537,556 491,589 Q445,622 380,622 Q291,622 239.5,564.5 Q188,507 174,418 L475,418 L475,317 L171,317 Q179,219 231,154 Q283,89 379,89 Q522,89 556,239"/> 
            <glyph glyph-name="Ѕ" unicode="&#x405;" horiz-adv-x="615" d=" M587,502 L468,502 Q457,627 313,627 Q249,627 213,600.5 Q177,574 177,528 Q177,485 203.5,469 Q230,453 321,430 Q345,423 358,420 Q477,390 520,366 Q615,315 615,207 Q615,160 599,122 Q583,84 556,58.5 Q529,33 492,16 Q455,-1 415,-8.5 Q375,-16 332,-16 Q198,-16 115,48 Q32,112 32,236 L155,236 Q155,158 206,120.5 Q257,83 339,83 Q411,83 451.5,112.5 Q492,142 492,195 Q492,229 470.5,250.5 Q449,272 424,281 Q399,290 337,306 Q330,308 326,309 Q193,343 151,365 Q64,410 58,504 Q58,511 58,518 Q58,613 129.5,669.5 Q201,726 321,726 Q437,726 510,671 Q583,616 587,502"/> 
            <glyph glyph-name="І" unicode="&#x406;" horiz-adv-x="202" d=" M202,712 L202,0 L76,0 L76,712"/> 
            <glyph glyph-name="Ї" unicode="&#x407;" horiz-adv-x="294" d=" M202,712 L202,0 L76,0 L76,712 M294,880 L294,771 L183,771 L183,880 M95,880 L95,771 L-17,771 L-17,880"/> 
            <glyph glyph-name="Ј" unicode="&#x408;" horiz-adv-x="470" d=" M470,712 L470,211 Q470,99 414.5,41 Q359,-17 251,-17 Q130,-17 77.5,44 Q25,105 25,223 L25,250 L144,250 L144,211 Q144,150 166,117.5 Q188,85 247,85 Q274,85 293,93.5 Q312,102 322,113.5 Q332,125 337.5,146 Q343,167 344,183.5 Q345,200 345,228 L345,712"/> 
            <glyph glyph-name="Љ" unicode="&#x409;" horiz-adv-x="1002" d=" M1002,221 Q1002,115 938.5,57.5 Q875,0 759,0 L489,0 L489,604 L287,604 L274,265 Q268,123 216.5,55 Q165,-13 83,-13 Q47,-13 8,0 L8,96 Q28,88 57,88 Q86,88 104,102 Q122,116 136,164.5 Q150,213 153,299 L167,712 L614,712 L614,440 L759,440 Q876,440 939,383 Q1002,326 1002,221 M877,218 Q877,274 844,306 Q811,338 752,338 L614,338 L614,102 L754,102 Q877,102 877,218"/> 
            <glyph glyph-name="Њ" unicode="&#x40A;" horiz-adv-x="1002" d=" M482,338 L198,338 L198,0 L73,0 L73,712 L198,712 L198,441 L482,441 L482,712 L607,712 L607,440 L759,440 Q876,440 939,383 Q1002,326 1002,221 Q1002,115 938.5,57.5 Q875,0 759,0 L482,0 M877,218 Q877,274 844,306 Q811,338 752,338 L607,338 L607,102 L754,102 Q877,102 877,218"/> 
            <glyph glyph-name="Ћ" unicode="&#x40B;" horiz-adv-x="742" d=" M492,442 Q554,442 601.5,426.5 Q649,411 674.5,388.5 Q700,366 716,335 Q732,304 737,278.5 Q742,253 742,225 L742,0 L617,0 L617,187 Q617,211 616,225 Q615,239 607,262 Q599,285 585,298 Q571,311 542,321 Q513,331 472,331 Q407,331 339,320 L339,0 L214,0 L214,604 L8,604 L8,712 L586,712 L586,604 L339,604 L339,428 Q433,442 492,442"/> 
            <glyph glyph-name="Ќ" unicode="&#x40C;" horiz-adv-x="689" d=" M671,712 L386,428 L689,0 L534,0 L300,341 L198,239 L198,0 L74,0 L74,712 L198,712 L198,389 L513,712 M491,900 L356,757 L274,757 L359,900"/> 
            <glyph glyph-name="Ў" unicode="&#x40E;" horiz-adv-x="616" d=" M241,200 L-5,712 L133,712 L305,330 L481,712 L616,712 L339,145 Q296,57 247,20 Q198,-17 136,-17 Q92,-17 52,1 L52,106 Q81,88 132,88 Q164,88 186,113.5 Q208,139 240,199 M473,892 Q465,820 425,785.5 Q385,751 309,751 Q233,751 193,785.5 Q153,820 145,892 L203,892 Q222,816 309,816 Q396,816 415,892"/> 
            <glyph glyph-name="Џ" unicode="&#x40F;" horiz-adv-x="649" d=" M524,108 L524,712 L649,712 L649,0 L423,0 L423,-177 L298,-177 L298,0 L73,0 L73,712 L198,712 L198,108"/> 
            <glyph glyph-name="А" unicode="&#x410;" horiz-adv-x="675" d=" M400,713 L675,0 L541,0 L473,189 L191,189 L121,0 L-8,0 L267,713 M440,283 L334,583 L223,283"/> 
            <glyph glyph-name="Б" unicode="&#x411;" horiz-adv-x="657" d=" M657,221 Q657,115 593.5,57.5 Q530,0 414,0 L76,0 L76,712 L600,712 L600,604 L201,604 L201,440 L414,440 Q531,440 594,383 Q657,326 657,221 M532,218 Q532,274 499,306 Q466,338 407,338 L201,338 L201,102 L409,102 Q532,102 532,218"/> 
            <glyph glyph-name="В" unicode="&#x412;" horiz-adv-x="662" d=" M74,712 L399,712 Q511,712 570.5,663.5 Q630,615 630,533 Q630,482 602,441.5 Q574,401 528,383 Q590,368 626,323 Q662,278 662,210 Q662,116 599.5,58 Q537,0 437,0 L74,0 M196,611 L196,415 L366,415 Q438,415 472,437.5 Q506,460 506,513 Q506,573 470.5,592 Q435,611 370,611 M196,325 L196,102 L383,102 Q455,102 496,126 Q537,150 537,213 Q537,248 524.5,271.5 Q512,295 488.5,306 Q465,317 440,321 Q415,325 381,325"/> 
            <glyph glyph-name="Г" unicode="&#x413;" horiz-adv-x="559" d=" M201,0 L76,0 L76,712 L559,712 L559,604 L201,604"/> 
            <glyph glyph-name="Д" unicode="&#x414;" horiz-adv-x="711" d=" M711,-177 L590,-177 L590,0 L126,0 L126,-177 L5,-177 L5,108 L74,108 Q115,180 141,318 Q167,456 167,602 L167,712 L631,712 L631,108 L711,108 M506,108 L506,604 L289,604 L289,561 Q289,432 265.5,304.5 Q242,177 208,108"/> 
            <glyph glyph-name="Е" unicode="&#x415;" horiz-adv-x="593" d=" M587,712 L587,607 L198,607 L198,418 L559,418 L559,317 L198,317 L198,107 L593,107 L593,0 L74,0 L74,712"/> 
            <glyph glyph-name="Ж" unicode="&#x416;" horiz-adv-x="1050" d=" M382,320 L149,0 L-7,0 L301,410 L27,712 L181,712 L459,392 L459,712 L584,712 L584,392 L862,712 L1016,712 L742,410 L1050,0 L894,0 L661,320 L584,234 L584,0 L459,0 L459,234"/> 
            <glyph glyph-name="З" unicode="&#x417;" horiz-adv-x="604" d=" M604,206 Q604,170 589,133.5 Q574,97 543.5,62.5 Q513,28 458,6 Q403,-16 332,-16 Q198,-16 115,48 Q32,112 32,236 L155,236 Q155,158 206,120.5 Q257,83 339,83 Q407,83 443,115 Q479,147 479,208 Q479,264 443.5,293 Q408,322 346,322 L259,322 L259,419 L346,419 Q395,419 427.5,450 Q460,481 460,530 Q460,577 427,603.5 Q394,630 334,630 Q190,630 179,505 L60,505 Q64,619 137,674 Q210,729 326,729 Q439,729 511,680.5 Q583,632 583,536 Q583,482 548,438 Q513,394 469,383 L469,380 Q529,368 566.5,320.5 Q604,273 604,206"/> 
            <glyph glyph-name="И" unicode="&#x418;" horiz-adv-x="649" d=" M73,0 L73,712 L198,712 L198,166 L504,712 L649,712 L649,0 L524,0 L524,546 L218,0"/> 
            <glyph glyph-name="Й" unicode="&#x419;" horiz-adv-x="649" d=" M525,892 Q517,820 477,785.5 Q437,751 361,751 Q285,751 245,785.5 Q205,820 197,892 L255,892 Q274,816 361,816 Q448,816 467,892 M73,0 L73,712 L198,712 L198,166 L504,712 L649,712 L649,0 L524,0 L524,546 L218,0"/> 
            <glyph glyph-name="К" unicode="&#x41A;" horiz-adv-x="689" d=" M671,712 L386,428 L689,0 L534,0 L300,341 L198,239 L198,0 L74,0 L74,712 L198,712 L198,389 L513,712"/> 
            <glyph glyph-name="Л" unicode="&#x41B;" horiz-adv-x="632" d=" M632,0 L507,0 L507,604 L287,604 L274,265 Q268,123 216.5,55 Q165,-13 83,-13 Q47,-13 8,0 L8,96 Q28,88 57,88 Q86,88 104,102 Q122,116 136,164.5 Q150,213 153,299 L167,712 L632,712"/> 
            <glyph glyph-name="М" unicode="&#x41C;" horiz-adv-x="815" d=" M815,712 L815,0 L696,0 L696,549 L498,0 L396,0 L193,549 L193,0 L75,0 L75,712 L250,712 L449,155 L641,712"/> 
            <glyph glyph-name="Н" unicode="&#x41D;" horiz-adv-x="649" d=" M649,712 L649,0 L524,0 L524,320 L198,320 L198,0 L73,0 L73,712 L198,712 L198,429 L524,429 L524,712"/> 
            <glyph glyph-name="О" unicode="&#x41E;" horiz-adv-x="722" d=" M382,729 Q533,729 627.5,625.5 Q722,522 722,356 Q722,190 627,86.5 Q532,-17 380,-17 Q227,-17 132.5,86 Q38,189 38,356 Q38,518 130.5,623.5 Q223,729 382,729 M380,624 Q282,624 223,551.5 Q164,479 164,358 Q164,234 222.5,161 Q281,88 382,88 Q479,88 537.5,161.5 Q596,235 596,357 Q596,479 537.5,551.5 Q479,624 380,624"/> 
            <glyph glyph-name="П" unicode="&#x41F;" horiz-adv-x="649" d=" M649,712 L649,0 L524,0 L524,604 L198,604 L198,0 L73,0 L73,712"/> 
            <glyph glyph-name="Р" unicode="&#x420;" horiz-adv-x="634" d=" M77,712 L386,712 Q501,712 567.5,657.5 Q634,603 634,495 Q634,393 572,333.5 Q510,274 403,274 L202,274 L202,0 L77,0 M202,608 L202,375 L376,375 Q512,375 512,492 Q512,608 365,608"/> 
            <glyph glyph-name="С" unicode="&#x421;" horiz-adv-x="685" d=" M685,271 Q675,140 591.5,61.5 Q508,-17 375,-17 Q224,-17 133,85 Q42,187 42,356 Q42,458 81,541.5 Q120,625 198,676.5 Q276,728 381,728 Q494,728 578,665.5 Q662,603 679,485 L555,485 Q542,549 495,585.5 Q448,622 379,622 Q308,622 258.5,582 Q209,542 188.5,483.5 Q168,425 168,356 Q168,304 180,258 Q192,212 216,173.5 Q240,135 281.5,112 Q323,89 378,89 Q537,89 560,271"/> 
            <glyph glyph-name="Т" unicode="&#x422;" horiz-adv-x="586" d=" M586,712 L586,604 L359,604 L359,0 L234,0 L234,604 L7,604 L7,712"/> 
            <glyph glyph-name="У" unicode="&#x423;" horiz-adv-x="616" d=" M241,200 L-5,712 L133,712 L305,330 L481,712 L616,712 L339,145 Q296,57 247,20 Q198,-17 136,-17 Q92,-17 52,1 L52,106 Q81,88 132,88 Q164,88 186,113 Q208,138 240,198"/> 
            <glyph glyph-name="Ф" unicode="&#x424;" horiz-adv-x="773" d=" M773,359 Q773,228 682,155 Q591,82 466,80 L466,0 L341,0 L341,80 Q262,82 194,111.5 Q126,141 80,205.5 Q34,270 34,359 Q34,489 122.5,564 Q211,639 341,643 L341,712 L466,712 L466,643 Q598,638 685.5,563.5 Q773,489 773,359 M648,359 Q648,516 466,535 L466,188 Q554,199 601,238 Q648,277 648,359 M341,188 L341,535 Q159,516 159,359 Q159,277 206,238 Q253,199 341,188"/> 
            <glyph glyph-name="Х" unicode="&#x425;" horiz-adv-x="649" d=" M-6,0 L248,369 L12,712 L161,712 L323,460 L492,712 L632,712 L396,369 L649,0 L497,0 L319,272 L138,0"/> 
            <glyph glyph-name="Ц" unicode="&#x426;" horiz-adv-x="724" d=" M646,108 L724,108 L724,-177 L603,-177 L603,0 L70,0 L70,712 L195,712 L195,108 L521,108 L521,712 L646,712"/> 
            <glyph glyph-name="Ч" unicode="&#x427;" horiz-adv-x="612" d=" M487,312 Q372,292 300,292 Q238,292 190.5,307.5 Q143,323 117.5,345.5 Q92,368 76,399 Q60,430 55,455.5 Q50,481 50,509 L50,712 L175,712 L175,547 Q175,523 176,509 Q177,495 185,472 Q193,449 207,436 Q221,423 250,413 Q279,403 320,403 Q402,403 487,420 L487,712 L612,712 L612,0 L487,0"/> 
            <glyph glyph-name="Ш" unicode="&#x428;" horiz-adv-x="1000" d=" M73,0 L73,712 L198,712 L198,108 L474,108 L474,712 L599,712 L599,108 L875,108 L875,712 L1000,712 L1000,0"/> 
            <glyph glyph-name="Щ" unicode="&#x429;" horiz-adv-x="1075" d=" M70,0 L70,712 L195,712 L195,108 L471,108 L471,712 L596,712 L596,108 L872,108 L872,712 L997,712 L997,108 L1075,108 L1075,-177 L954,-177 L954,0"/> 
            <glyph glyph-name="Ъ" unicode="&#x42A;" horiz-adv-x="780" d=" M780,221 Q780,115 716.5,57.5 Q653,0 537,0 L222,0 L222,604 L8,604 L8,712 L347,712 L347,440 L537,440 Q654,440 717,383 Q780,326 780,221 M655,218 Q655,274 622,306 Q589,338 530,338 L347,338 L347,102 L532,102 Q655,102 655,218"/> 
            <glyph glyph-name="Ы" unicode="&#x42B;" horiz-adv-x="823" d=" M614,221 Q614,115 550.5,57.5 Q487,0 371,0 L76,0 L76,712 L201,712 L201,440 L371,440 Q488,440 551,383 Q614,326 614,221 M489,218 Q489,274 456,306 Q423,338 364,338 L201,338 L201,102 L366,102 Q489,102 489,218 M698,712 L823,712 L823,0 L698,0"/> 
            <glyph glyph-name="Ь" unicode="&#x42C;" horiz-adv-x="634" d=" M634,221 Q634,115 570.5,57.5 Q507,0 391,0 L76,0 L76,712 L201,712 L201,440 L391,440 Q508,440 571,383 Q634,326 634,221 M509,218 Q509,274 476,306 Q443,338 384,338 L201,338 L201,102 L386,102 Q509,102 509,218"/> 
            <glyph glyph-name="Э" unicode="&#x42D;" horiz-adv-x="680" d=" M680,356 Q680,187 589,85 Q498,-17 347,-17 Q223,-17 141,52.5 Q59,122 41,239 L167,239 Q201,89 344,89 Q440,89 492,154 Q544,219 552,317 L248,317 L248,418 L549,418 Q535,507 483.5,564.5 Q432,622 343,622 Q278,622 232,589 Q186,556 170,498 L45,498 Q66,610 148.5,669 Q231,728 341,728 Q446,728 524,676.5 Q602,625 641,541.5 Q680,458 680,356"/> 
            <glyph glyph-name="Ю" unicode="&#x42E;" horiz-adv-x="980" d=" M653,729 Q795,729 887.5,625 Q980,521 980,356 Q980,191 887,87 Q794,-17 651,-17 Q514,-17 423.5,76.5 Q333,170 323,322 L198,322 L198,0 L73,0 L73,712 L198,712 L198,429 L327,429 Q348,563 434.5,646 Q521,729 653,729 M651,624 Q561,624 504.5,551 Q448,478 448,358 Q448,235 505,161.5 Q562,88 653,88 Q742,88 798,162 Q854,236 854,357 Q854,479 798.5,551.5 Q743,624 651,624"/> 
            <glyph glyph-name="Я" unicode="&#x42F;" horiz-adv-x="612" d=" M612,0 L487,0 L487,294 L345,294 L143,0 L-13,0 L206,306 Q118,333 85,386 Q52,439 52,515 Q52,605 114,658.5 Q176,712 288,712 L612,712 M487,389 L487,610 L301,610 Q237,610 207,584.5 Q177,559 177,504 Q177,389 299,389"/> 
            <glyph glyph-name="а" unicode="&#x430;" horiz-adv-x="546" d=" M55,357 Q73,532 281,532 Q378,532 435.5,494 Q493,456 493,376 L493,114 Q493,92 498.5,84 Q504,76 520,76 Q532,76 546,78 L546,-2 Q502,-13 472,-13 Q399,-13 388,49 Q323,-13 207,-13 Q127,-13 80,28.5 Q33,70 33,141 Q33,163 38,182 Q43,201 49.5,215 Q56,229 70.5,241 Q85,253 94.5,261 Q104,269 125.5,276 Q147,283 157.5,286.5 Q168,290 194,294 Q220,298 228.5,299.5 Q237,301 264,304 Q325,312 347,317.5 Q369,323 377,334 Q384,342 384,371 Q384,449 278,449 Q222,449 196,428 Q170,407 163,357 M383,259 Q370,252 353,246.5 Q336,241 325.5,239.5 Q315,238 292.5,235 Q270,232 263,231 Q242,228 230,225.5 Q218,223 200.5,217 Q183,211 173.5,202.5 Q164,194 157,179.5 Q150,165 150,145 Q150,108 174.5,88 Q199,68 243,68 Q319,68 360,109 Q383,132 383,198"/> 
            <glyph glyph-name="б" unicode="&#x431;" horiz-adv-x="556" d=" M556,252 Q556,131 488,58.5 Q420,-14 307,-14 Q133,-14 73,129 Q47,189 47,292 Q47,495 112,595 Q146,647 195,672.5 Q244,698 319,703 Q328,704 343.5,705 Q359,706 365.5,706.5 Q372,707 382.5,708.5 Q393,710 397.5,711.5 Q402,713 408,715.5 Q414,718 417,722 Q420,726 423,731 L537,731 Q534,713 528.5,698 Q523,683 517,672 Q511,661 499.5,652 Q488,643 480.5,637 Q473,631 457,626 Q441,621 432,618.5 Q423,616 403,613.5 Q383,611 373.5,610 Q364,609 340.5,607.5 Q317,606 307,605 Q169,594 126,411 L129,411 Q162,464 206,490.5 Q250,517 322,517 Q422,517 489,444 Q556,371 556,252 M442,252 Q442,331 403.5,379 Q365,427 302,427 Q239,427 200.5,379.5 Q162,332 162,252 Q162,172 200.5,124 Q239,76 302,76 Q365,76 403.5,124 Q442,172 442,252"/> 
            <glyph glyph-name="в" unicode="&#x432;" horiz-adv-x="521" d=" M521,146 Q521,76 471.5,38 Q422,0 331,0 L60,0 L60,516 L345,516 Q417,516 457.5,483 Q498,450 498,390 Q498,349 480,324 Q462,299 424,281 L424,279 Q521,254 521,146 M331,228 L174,228 L174,86 L331,86 Q408,86 408,156 Q408,190 388,209 Q368,228 331,228 M316,430 L174,430 L174,311 L319,311 Q385,311 385,373 Q385,430 316,430"/> 
            <glyph glyph-name="г" unicode="&#x433;" horiz-adv-x="421" d=" M421,426 L174,426 L174,0 L60,0 L60,516 L421,516"/> 
            <glyph glyph-name="д" unicode="&#x434;" horiz-adv-x="590" d=" M590,-164 L482,-164 L482,0 L115,0 L115,-164 L7,-164 L7,90 L72,90 Q133,233 133,458 L133,516 L521,516 L521,90 L590,90 M409,90 L409,428 L242,428 L242,393 Q242,312 225,223.5 Q208,135 189,90"/> 
            <glyph glyph-name="е" unicode="&#x435;" horiz-adv-x="529" d=" M522,161 Q503,77 439.5,30 Q376,-17 288,-17 Q171,-17 102.5,58.5 Q34,134 34,252 Q34,373 104.5,452 Q175,531 284,531 Q397,531 463,453.5 Q529,376 529,242 L529,230 L148,230 Q150,152 187,109.5 Q224,67 290,67 Q337,67 366.5,89.5 Q396,112 413,161 M415,306 Q410,371 374.5,408.5 Q339,446 283,446 Q227,446 192.5,410 Q158,374 150,306"/> 
            <glyph glyph-name="ж" unicode="&#x436;" horiz-adv-x="787" d=" M787,0 L650,0 L492,224 L444,170 L444,0 L334,0 L334,170 L286,224 L128,0 L-9,0 L213,296 L16,516 L154,516 L331,298 L334,298 L334,516 L444,516 L444,298 L447,298 L624,516 L762,516 L565,296"/> 
            <glyph glyph-name="з" unicode="&#x437;" horiz-adv-x="482" d=" M482,153 Q482,74 416.5,30 Q351,-14 262,-14 Q152,-14 92.5,32.5 Q33,79 29,161 L144,161 Q156,74 261,74 Q310,74 339,94.5 Q368,115 368,151 Q368,227 267,227 L203,227 L203,311 L249,311 Q352,311 352,379 Q352,444 258,444 Q176,444 159,367 L44,367 Q59,531 269,531 Q356,531 410.5,497 Q465,463 465,392 Q465,350 440.5,320 Q416,290 382,283 L382,281 Q423,273 452.5,240.5 Q482,208 482,153"/> 
            <glyph glyph-name="и" unicode="&#x438;" horiz-adv-x="514" d=" M204,0 L60,0 L60,516 L174,516 L174,140 L177,140 L370,516 L514,516 L514,0 L400,0 L400,376 L397,376"/> 
            <glyph glyph-name="й" unicode="&#x439;" horiz-adv-x="514" d=" M451,729 Q443,657 403,622.5 Q363,588 287,588 Q211,588 171,622.5 Q131,657 123,729 L181,729 Q200,653 287,653 Q374,653 393,729 M204,0 L60,0 L60,516 L174,516 L174,140 L177,140 L370,516 L514,516 L514,0 L400,0 L400,376 L397,376"/> 
            <glyph glyph-name="к" unicode="&#x43A;" horiz-adv-x="542" d=" M542,0 L404,0 L242,231 L174,160 L174,0 L60,0 L60,516 L174,516 L174,287 L380,516 L519,516 L318,309"/> 
            <glyph glyph-name="л" unicode="&#x43B;" horiz-adv-x="516" d=" M516,0 L402,0 L402,426 L244,426 L237,200 Q234,99 193.5,43.5 Q153,-12 83,-12 Q40,-12 13,-1 L13,88 Q23,83 54,83 Q122,83 126,211 L135,516 L516,516"/> 
            <glyph glyph-name="м" unicode="&#x43C;" horiz-adv-x="645" d=" M170,0 L60,0 L60,516 L210,516 L354,106 L356,106 L495,516 L645,516 L645,0 L535,0 L535,343 L533,343 L410,0 L295,0 L172,343 L170,343"/> 
            <glyph glyph-name="н" unicode="&#x43D;" horiz-adv-x="514" d=" M174,0 L60,0 L60,516 L174,516 L174,314 L400,314 L400,516 L514,516 L514,0 L400,0 L400,224 L174,224"/> 
            <glyph glyph-name="о" unicode="&#x43E;" horiz-adv-x="557" d=" M299,531 Q417,531 487,457 Q557,383 557,258 Q557,132 487.5,58 Q418,-16 299,-16 Q178,-16 107,58 Q36,132 36,258 Q36,383 107.5,457 Q179,531 299,531 M365,441 Q229,441 190,392 Q151,343 151,258 Q151,171 190,122 Q229,73 298,73 Q365,73 403.5,122.5 Q442,172 442,259 Q442,344 365,441"/> 
            <glyph glyph-name="п" unicode="&#x43F;" horiz-adv-x="514" d=" M174,0 L60,0 L60,516 L514,516 L514,0 L400,0 L400,426 L174,426"/> 
            <glyph glyph-name="р" unicode="&#x440;" horiz-adv-x="572" d=" M169,516 L169,447 Q221,531 337,531 Q444,531 508,456 Q572,381 572,256 Q572,134 509.5,60.5 Q447,-13 343,-13 Q233,-13 175,68 L175,-191 L62,-191 L62,516 M314,439 Q247,439 209,391 Q171,343 171,258 Q171,174 209.5,126 Q248,78 316,78 Q381,78 419,126 Q457,174 457,256 Q457,340 418.5,389.5 Q380,439 314,439"/> 
            <glyph glyph-name="с" unicode="&#x441;" horiz-adv-x="528" d=" M528,195 Q516,100 452,43.5 Q388,-13 291,-13 Q175,-13 106,60.5 Q37,134 37,253 Q37,381 106.5,456.5 Q176,532 294,532 Q393,532 453.5,482 Q514,432 524,343 L411,343 Q401,392 371,418 Q341,444 295,444 Q229,444 191,394.5 Q153,345 153,259 Q153,173 189.5,125 Q226,77 291,77 Q342,77 374.5,107.5 Q407,138 416,195"/> 
            <glyph glyph-name="т" unicode="&#x442;" horiz-adv-x="459" d=" M459,426 L289,426 L289,0 L175,0 L175,426 L5,426 L5,516 L459,516"/> 
            <glyph glyph-name="у" unicode="&#x443;" horiz-adv-x="515" d=" M515,516 L324,10 Q321,3 313,-19.5 Q305,-42 302,-50 Q299,-58 290.5,-78 Q282,-98 277,-106 Q272,-114 262,-130 Q252,-146 243.5,-153 Q235,-160 222.5,-170.5 Q210,-181 197,-185.5 Q184,-190 167.5,-193.5 Q151,-197 132,-197 Q100,-197 53,-191 L53,-95 Q89,-102 113,-102 Q125,-102 135,-98.5 Q145,-95 153,-86.5 Q161,-78 167,-70.5 Q173,-63 178.5,-49.5 Q184,-36 187,-28.5 Q190,-21 195,-5 Q200,11 201,15 L3,516 L128,516 L266,136 L396,516"/> 
            <glyph glyph-name="ф" unicode="&#x444;" horiz-adv-x="790" d=" M790,266 Q790,189 770.5,128.5 Q751,68 702,27 Q653,-14 580,-14 Q552,-14 520,0.5 Q488,15 473,34 L470,34 L470,-191 L356,-191 L356,34 L353,34 Q338,15 306,0.5 Q274,-14 246,-14 Q173,-14 124,27 Q75,68 55.5,128.5 Q36,189 36,266 Q36,388 91,459.5 Q146,531 239,531 Q271,531 304.5,515 Q338,499 353,478 L356,478 L356,712 L470,712 L470,478 L473,478 Q488,499 521.5,515 Q555,531 587,531 Q680,531 735,459.5 Q790,388 790,266 M676,264 Q676,443 563,443 Q533,443 506.5,428.5 Q480,414 470,382 L470,131 Q475,107 499,90.5 Q523,74 558,74 Q621,74 648.5,128 Q676,182 676,264 M356,131 L356,382 Q346,414 319.5,428.5 Q293,443 263,443 Q150,443 150,264 Q150,182 177.5,128 Q205,74 268,74 Q303,74 327,90.5 Q351,107 356,131"/> 
            <glyph glyph-name="х" unicode="&#x445;" horiz-adv-x="532" d=" M198,271 L19,516 L157,516 L265,357 L378,516 L510,516 L335,277 L532,0 L395,0 L264,190 L137,0 L3,0"/> 
            <glyph glyph-name="ц" unicode="&#x446;" horiz-adv-x="583" d=" M514,90 L583,90 L583,-164 L473,-164 L473,0 L60,0 L60,516 L174,516 L174,90 L400,90 L400,516 L514,516"/> 
            <glyph glyph-name="ч" unicode="&#x447;" horiz-adv-x="481" d=" M367,219 Q281,192 199,192 Q121,192 78.5,231.5 Q36,271 36,346 L36,516 L150,516 L150,386 Q150,288 244,288 Q308,288 367,313 L367,516 L481,516 L481,0 L367,0"/> 
            <glyph glyph-name="ш" unicode="&#x448;" horiz-adv-x="754" d=" M60,0 L60,516 L174,516 L174,90 L350,90 L350,516 L464,516 L464,90 L640,90 L640,516 L754,516 L754,0"/> 
            <glyph glyph-name="щ" unicode="&#x449;" horiz-adv-x="823" d=" M60,0 L60,516 L174,516 L174,90 L350,90 L350,516 L464,516 L464,90 L640,90 L640,516 L754,516 L754,90 L823,90 L823,-164 L713,-164 L713,0"/> 
            <glyph glyph-name="ъ" unicode="&#x44A;" horiz-adv-x="600" d=" M600,242 Q600,88 554,44 Q508,0 425,0 L153,0 L153,426 L6,426 L6,516 L267,516 L267,329 L424,329 Q508,329 600,242 M486,163 Q486,198 466,219 Q446,240 410,240 L267,240 L267,89 L412,89 Q449,89 467.5,109.5 Q486,130 486,163"/> 
            <glyph glyph-name="ы" unicode="&#x44B;" horiz-adv-x="667" d=" M553,516 L667,516 L667,0 L553,0 M482,242 Q482,88 436,44 Q390,0 307,0 L55,0 L55,516 L169,516 L169,329 L306,329 Q390,329 482,242 M368,163 Q368,198 348,219 Q328,240 292,240 L169,240 L169,89 L294,89 Q331,89 349.5,109.5 Q368,130 368,163"/> 
            <glyph glyph-name="ь" unicode="&#x44C;" horiz-adv-x="507" d=" M507,242 Q507,88 461,44 Q415,0 332,0 L60,0 L60,516 L174,516 L174,329 L331,329 Q415,329 507,242 M393,163 Q393,198 373,219 Q353,240 317,240 L174,240 L174,89 L319,89 Q356,89 374.5,109.5 Q393,130 393,163"/> 
            <glyph glyph-name="э" unicode="&#x44D;" horiz-adv-x="520" d=" M520,253 Q520,134 451,60.5 Q382,-13 266,-13 Q175,-13 112,38 Q49,89 32,176 L145,176 Q170,77 266,77 Q324,77 359.5,116 Q395,155 402,225 L210,225 L210,305 L401,305 Q391,371 355,407.5 Q319,444 262,444 Q174,444 149,357 L35,357 Q49,440 108.5,486 Q168,532 263,532 Q381,532 450.5,456.5 Q520,381 520,253"/> 
            <glyph glyph-name="ю" unicode="&#x44E;" horiz-adv-x="766" d=" M518,531 Q632,531 699,457 Q766,383 766,258 Q766,132 699,58 Q632,-16 518,-16 Q410,-16 342.5,49 Q275,114 267,226 L174,226 L174,0 L60,0 L60,516 L174,516 L174,312 L269,312 Q283,414 349.5,472.5 Q416,531 518,531 M580,441 Q452,441 416,392 Q380,343 380,258 Q380,171 416,122 Q452,73 517,73 Q580,73 615.5,122.5 Q651,172 651,259 Q651,344 580,441"/> 
            <glyph glyph-name="я" unicode="&#x44F;" horiz-adv-x="496" d=" M496,0 L382,0 L382,208 L285,208 L126,0 L-8,0 L164,221 Q101,241 77,279.5 Q53,318 53,373 Q53,441 97,478.5 Q141,516 223,516 L496,516 M382,291 L382,429 L244,429 Q167,429 167,363 Q167,291 243,291"/> 
            <glyph glyph-name="ё" unicode="&#x451;" horiz-adv-x="529" d=" M433,712 L433,603 L322,603 L322,712 M234,712 L234,603 L123,603 L123,712 M522,161 Q503,77 439.5,30 Q376,-17 288,-17 Q171,-17 102.5,58.5 Q34,134 34,252 Q34,373 104.5,452 Q175,531 284,531 Q397,531 463,453.5 Q529,376 529,242 L529,230 L148,230 Q150,152 187,109.5 Q224,67 290,67 Q337,67 366.5,89.5 Q396,112 413,161 M415,306 Q410,371 374.5,408.5 Q339,446 283,446 Q227,446 192.5,410 Q158,374 150,306"/> 
            <glyph glyph-name="ђ" unicode="&#x452;" horiz-adv-x="521" d=" M521,103 Q521,-19 435,-102.5 Q349,-186 227,-191 L227,-92 Q310,-82 358.5,-29 Q407,24 407,102 L407,165 Q407,281 308,281 Q252,281 216.5,243 Q181,205 181,145 L181,0 L67,0 L67,431 L15,431 L15,516 L67,516 L67,712 L181,712 L181,516 L408,516 L408,431 L181,431 L181,289 L183,289 Q237,371 343,371 Q426,371 473.5,324 Q521,277 521,195"/> 
            <glyph glyph-name="ѓ" unicode="&#x453;" horiz-adv-x="421" d=" M421,426 L174,426 L174,0 L60,0 L60,516 L421,516 M354,727 L220,584 L138,584 L223,727"/> 
            <glyph glyph-name="є" unicode="&#x454;" horiz-adv-x="525" d=" M525,176 Q508,89 445,38 Q382,-13 291,-13 Q175,-13 106,60.5 Q37,134 37,253 Q37,381 106.5,456.5 Q176,532 294,532 Q389,532 448.5,486 Q508,440 522,357 L408,357 Q383,444 295,444 Q238,444 202,407.5 Q166,371 156,305 L352,305 L352,225 L155,225 Q162,155 197.5,116 Q233,77 291,77 Q387,77 412,176"/> 
            <glyph glyph-name="ѕ" unicode="&#x455;" horiz-adv-x="488" d=" M469,366 L360,366 Q350,448 248,448 Q204,448 180,432 Q156,416 156,388 Q156,379 157.5,372 Q159,365 163.5,359.5 Q168,354 171.5,350 Q175,346 184,342 Q193,338 198.5,335.5 Q204,333 217,329.5 Q230,326 237.5,324 Q245,322 262,318.5 Q279,315 288,313 Q327,304 344.5,299.5 Q362,295 395.5,281.5 Q429,268 445,253.5 Q461,239 474.5,213.5 Q488,188 488,155 Q488,77 427,31 Q366,-15 263,-15 Q153,-15 94,31 Q35,77 31,165 L140,165 Q149,68 265,68 Q315,68 345.5,88.5 Q376,109 376,143 Q376,160 368.5,172 Q361,184 344,192.5 Q327,201 311.5,205.5 Q296,210 270,216 Q266,217 264,217.5 Q262,218 259,218.5 Q256,219 253,220 Q143,247 113,262 Q42,296 42,375 Q42,448 98,489.5 Q154,531 253,531 Q348,531 408.5,490 Q469,449 469,366"/> 
            <glyph glyph-name="і" unicode="&#x456;" horiz-adv-x="177" d=" M177,715 L177,603 L63,603 L63,715 M177,516 L177,0 L63,0 L63,516"/> 
            <glyph glyph-name="ї" unicode="&#x457;" horiz-adv-x="276" d=" M177,516 L177,0 L63,0 L63,516 M276,712 L276,603 L164,603 L164,712 M77,712 L77,603 L-35,603 L-35,712"/> 
            <glyph glyph-name="ј" unicode="&#x458;" horiz-adv-x="181" d=" M181,516 L181,-27 Q181,-118 147.5,-158 Q114,-198 29,-198 Q14,-198 -19,-195 L-19,-102 Q7,-104 8,-104 Q40,-104 53.5,-95 Q67,-86 67,-57 L67,516 M181,716 L181,603 L67,603 L67,716"/> 
            <glyph glyph-name="љ" unicode="&#x459;" horiz-adv-x="787" d=" M787,160 Q787,83 741.5,41.5 Q696,0 612,0 L376,0 L376,426 L241,426 L234,200 Q231,99 190.5,43.5 Q150,-12 80,-12 Q38,-12 10,-1 L10,88 Q20,83 51,83 Q119,83 123,211 L132,516 L490,516 L490,319 L611,319 Q696,319 741.5,277.5 Q787,236 787,160 M673,158 Q673,192 653,211 Q633,230 597,230 L490,230 L490,89 L599,89 Q673,89 673,158"/> 
            <glyph glyph-name="њ" unicode="&#x45A;" horiz-adv-x="787" d=" M787,160 Q787,83 741.5,41.5 Q696,0 612,0 L370,0 L370,230 L174,230 L174,0 L60,0 L60,516 L174,516 L174,320 L370,320 L370,516 L484,516 L484,319 L611,319 Q696,319 741.5,277.5 Q787,236 787,160 M673,158 Q673,192 653,211 Q633,230 597,230 L484,230 L484,89 L599,89 Q673,89 673,158"/> 
            <glyph glyph-name="ћ" unicode="&#x45B;" horiz-adv-x="521" d=" M521,0 L407,0 L407,165 Q407,281 308,281 Q252,281 216.5,243 Q181,205 181,145 L181,0 L67,0 L67,431 L15,431 L15,516 L67,516 L67,712 L181,712 L181,516 L408,516 L408,431 L181,431 L181,289 L183,289 Q237,371 343,371 Q426,371 473.5,324 Q521,277 521,195"/> 
            <glyph glyph-name="ќ" unicode="&#x45C;" horiz-adv-x="542" d=" M417,727 L283,584 L201,584 L286,727 M542,0 L404,0 L242,231 L174,160 L174,0 L60,0 L60,516 L174,516 L174,287 L380,516 L519,516 L318,309"/> 
            <glyph glyph-name="ў" unicode="&#x45E;" horiz-adv-x="515" d=" M429,729 Q421,657 381,622.5 Q341,588 265,588 Q189,588 149,622.5 Q109,657 101,729 L159,729 Q178,653 265,653 Q352,653 371,729 M515,516 L324,10 Q321,2 313,-19.5 Q305,-41 301.5,-49.5 Q298,-58 290,-77.5 Q282,-97 277,-106 Q272,-115 262,-130 Q252,-145 243.5,-152.5 Q235,-160 222.5,-170.5 Q210,-181 197,-185.5 Q184,-190 167.5,-193.5 Q151,-197 132,-197 Q100,-197 53,-191 L53,-95 Q89,-102 113,-102 Q125,-102 135,-98.5 Q145,-95 153,-86.5 Q161,-78 167,-70.5 Q173,-63 178.5,-49.5 Q184,-36 187,-28.5 Q190,-21 195,-5 Q200,11 201,15 L3,516 L128,516 L266,136 L396,516"/> 
            <glyph glyph-name="џ" unicode="&#x45F;" horiz-adv-x="514" d=" M400,90 L400,516 L514,516 L514,0 L343,0 L343,-164 L229,-164 L229,0 L60,0 L60,516 L174,516 L174,90"/> 
            <glyph glyph-name="Ґ" unicode="&#x490;" horiz-adv-x="559" d=" M559,869 L559,604 L201,604 L201,0 L76,0 L76,712 L434,712 L434,869"/> 
            <glyph glyph-name="ґ" unicode="&#x491;" horiz-adv-x="423" d=" M423,670 L423,426 L174,426 L174,0 L60,0 L60,516 L309,516 L309,670"/> 
            <glyph glyph-name="–" unicode="&#x2013;" horiz-adv-x="500" d=" M500,327 L500,223 L0,223 L0,327"/> 
            <glyph glyph-name="—" unicode="&#x2014;" horiz-adv-x="1000" d=" M1000,327 L1000,223 L0,223 L0,327"/> 
            <glyph glyph-name="‘" unicode="&#x2018;" horiz-adv-x="204" d=" M67,437 L67,547 Q67,701 204,725 L204,666 Q142,646 139,569 L204,569 L204,437"/> 
            <glyph glyph-name="’" unicode="&#x2019;" horiz-adv-x="210" d=" M210,712 L210,602 Q210,448 73,424 L73,483 Q135,503 138,580 L73,580 L73,712"/> 
            <glyph glyph-name="‚" unicode="&#x201A;" horiz-adv-x="202" d=" M202,128 L202,28 Q202,-127 77,-155 L77,-99 Q108,-86 122.5,-63 Q137,-40 139,0 L77,0 L77,128"/> 
            <glyph glyph-name="“" unicode="&#x201C;" horiz-adv-x="382" d=" M59,441 L59,564 Q59,627 96,670.5 Q133,714 185,724 L185,667 Q124,644 124,569 L185,569 L185,441 M256,441 L256,564 Q256,627 293,670.5 Q330,714 382,724 L382,667 Q321,644 321,569 L382,569 L382,441"/> 
            <glyph glyph-name="”" unicode="&#x201D;" horiz-adv-x="383" d=" M383,712 L383,589 Q383,526 346,482.5 Q309,439 257,429 L257,486 Q318,509 318,584 L257,584 L257,712 M186,712 L186,589 Q186,526 149,482.5 Q112,439 60,429 L60,486 Q121,509 121,584 L60,584 L60,712"/> 
            <glyph glyph-name="„" unicode="&#x201E;" horiz-adv-x="384" d=" M384,128 L384,5 Q384,-58 347,-101.5 Q310,-145 258,-155 L258,-98 Q319,-75 319,0 L258,0 L258,128 M187,128 L187,5 Q187,-58 150,-101.5 Q113,-145 61,-155 L61,-98 Q122,-75 122,0 L61,0 L61,128"/> 
            <glyph glyph-name="†" unicode="&#x2020;" horiz-adv-x="523" d=" M523,511 L523,414 L332,414 L332,-160 L222,-160 L222,414 L33,414 L33,511 L222,511 L222,712 L332,712 L332,511"/> 
            <glyph glyph-name="‡" unicode="&#x2021;" horiz-adv-x="523" d=" M523,518 L523,422 L331,422 L331,130 L523,130 L523,34 L331,34 L331,-159 L223,-159 L223,34 L33,34 L33,130 L223,130 L223,422 L33,422 L33,518 L223,518 L223,712 L331,712 L331,518"/> 
            <glyph glyph-name="•" unicode="&#x2022;" horiz-adv-x="428" d=" M176,534 Q324,534 376,482 Q428,430 428,356 Q428,282 376,230 Q324,178 250,178 Q176,178 124,230 Q72,282 72,356 Q72,430 176,534"/> 
            <glyph glyph-name="…" unicode="&#x2026;" horiz-adv-x="892" d=" M108,0 L108,130 L225,130 L225,0 M441,0 L441,130 L558,130 L558,0 M774,0 L774,130 L892,130 L892,0"/> 
            <glyph glyph-name="‰" unicode="&#x2030;" horiz-adv-x="1069" d=" M657,725 L204,-31 L130,-31 L585,725 M579,328 Q648,328 685.5,285 Q723,242 723,163 Q723,78 686,33 Q649,-12 579,-12 Q432,-12 432,156 Q432,241 469.5,284.5 Q507,328 579,328 M924,329 Q994,329 1031.5,286 Q1069,243 1069,162 Q1069,78 1031.5,33 Q994,-12 924,-12 Q778,-12 778,156 Q778,240 815.5,284.5 Q853,329 924,329 M154,707 Q296,707 333,663.5 Q370,620 370,538 Q370,456 331.5,411 Q293,366 223,366 Q153,366 116,409.5 Q79,453 79,535 Q79,618 154,707 M578,269 Q513,269 513,156 Q513,100 529,74 Q545,48 579,48 Q641,48 641,161 Q641,269 578,269 M923,269 Q858,269 858,156 Q858,48 924,48 Q987,48 987,160 Q987,269 923,269 M288,647 Q160,647 160,532 Q160,427 224,427 Q288,427 288,647"/> 
            <glyph glyph-name="‹" unicode="&#x2039;" horiz-adv-x="197" d=" M197,440 L197,337 L103,265 L197,191 L197,87 L43,210 L43,319"/> 
            <glyph glyph-name="›" unicode="&#x203A;" horiz-adv-x="215" d=" M61,441 L215,319 L215,208 L61,89 L61,191 L156,263 L61,337"/> 
            <glyph glyph-name="№" unicode="&#x2116;" horiz-adv-x="1004" d=" M1004,279 Q1004,203 962,162 Q920,121 841,121 Q763,121 720.5,161.5 Q678,202 678,276 Q678,350 721,391 Q764,432 841,432 Q917,432 960.5,391 Q1004,350 1004,279 M620,0 L488,0 L190,507 L190,0 L71,0 L71,696 L203,696 L501,188 L501,696 L620,696 M917,236 Q917,316 895,341.5 Q873,367 841,367 Q808,367 786.5,342 Q765,317 765,276 Q765,235 786.5,210.5 Q808,186 841,186 Q873,186 917,236 M1004,0 L679,0 L679,85 L1004,85"/> 
            <glyph glyph-name="™" unicode="&#x2122;" horiz-adv-x="847" d=" M218,356 L218,657 L103,657 L103,712 L402,712 L402,657 L288,657 L288,356 M460,356 L460,712 L565,712 L655,461 L744,712 L847,712 L847,356 L784,356 L784,649 L681,356 L627,356 L524,649 L524,356"/> 
            <glyph glyph-name="∆" unicode="&#x2206;" horiz-adv-x="672" d=" M387,696 L672,0 L10,0 L283,696 M147,91 L530,91 L334,584"/> 
            <glyph glyph-name="√" unicode="&#x221A;" horiz-adv-x="559" d=" M559,786 L347,-214 L252,-214 L96,108 L47,85 L10,165 L146,228 L283,-61 L456,786"/> 
            <glyph glyph-name="∞" unicode="&#x221E;" horiz-adv-x="752" d=" M399,312 Q431,349 453.5,370 Q476,391 514,410.5 Q552,430 591,430 Q662,430 707,382.5 Q752,335 752,259 Q752,182 707.5,133.5 Q663,85 591,85 Q536,85 491,114.5 Q446,144 399,196 Q392,190 366,165 Q340,140 329.5,132.5 Q319,125 297,110.5 Q275,96 254,91 Q233,86 207,86 Q135,86 89.5,133.5 Q44,181 44,257 Q44,333 89,381 Q134,429 204,429 Q262,429 305,399 Q348,369 399,312 M451,255 Q530,172 592,172 Q627,172 649,195.5 Q671,219 671,256 Q671,295 648.5,319 Q626,343 590,343 Q534,343 451,255 M346,255 Q258,342 203,342 Q170,342 148,317.5 Q126,293 126,256 Q126,218 148,195.5 Q170,173 207,173 Q233,173 260.5,187.5 Q288,202 305,216.5 Q322,231 346,255"/> 
            <glyph glyph-name="≈" unicode="&#x2248;" horiz-adv-x="567" d=" M567,439 Q559,360 522,318 Q485,276 424,276 Q391,276 290,308 Q283,311 261,318.5 Q239,326 225,331 Q211,336 193.5,340.5 Q176,345 165,345 Q139,345 120.5,325.5 Q102,306 98,274 L33,274 Q40,344 75,391 Q110,438 175,438 Q205,438 310,404 Q320,401 337.5,395 Q355,389 362.5,386.5 Q370,384 382,380 Q394,376 401.5,374.5 Q409,373 418.5,372 Q428,371 437,371 Q490,371 502,439 M567,240 Q559,161 522,119 Q485,77 424,77 Q391,77 290,109 Q283,112 261,119.5 Q239,127 225,132 Q211,137 193.5,141.5 Q176,146 165,146 Q139,146 120.5,126.5 Q102,107 98,75 L33,75 Q40,145 75,192 Q110,239 175,239 Q205,239 310,205 Q320,202 337.5,196 Q355,190 362.5,187.5 Q370,185 382,181 Q394,177 401.5,175.5 Q409,174 418.5,173 Q428,172 437,172 Q490,172 502,240"/> 
            <glyph glyph-name="≠" unicode="&#x2260;" horiz-adv-x="558" d=" M216,198 L277,317 L41,317 L41,412 L326,412 L403,564 L487,521 L431,412 L558,412 L558,317 L382,317 L321,198 L558,198 L558,102 L272,102 L195,-49 L111,-6 L167,102 L41,102 L41,198"/> 
            <glyph glyph-name="≤" unicode="&#x2264;" horiz-adv-x="555" d=" M38,271 L38,368 L555,549 L555,448 L169,320 L555,197 L555,96 M38,62 L555,62 L555,-34 L38,-34"/> 
            <glyph glyph-name="≥" unicode="&#x2265;" horiz-adv-x="562" d=" M562,271 L45,96 L45,197 L431,320 L45,448 L45,549 L562,368 M562,62 L562,-34 L45,-34 L45,62"/> 
            <glyph glyph-name="" unicode="&#xE000;" horiz-adv-x="341" d=" M341,328 L341,222 L48,222 L48,328"/> 
            <glyph glyph-name=" " unicode="&#x20;" horiz-adv-x="204" d=" M200,712 L200,508 L168,197 L109,197 L78,507 L78,712 M204,127 L204,0 L74,0 L74,127"/> 
            <glyph glyph-name="!" unicode="&#x21;" horiz-adv-x="359" d=" M168,405 L103,405 L85,696 L186,696 M342,405 L276,405 L259,696 L359,696"/> 
            <glyph glyph-name="&quot;" unicode="&#x22;" horiz-adv-x="549" d=" M163,0 L69,0 L105,195 L15,195 L15,275 L119,275 L146,420 L57,420 L57,500 L161,500 L198,696 L292,696 L256,500 L366,500 L402,696 L496,696 L460,500 L549,500 L549,420 L445,420 L418,275 L507,275 L507,195 L403,195 L367,0 L273,0 L309,195 L199,195 M324,275 L351,420 L241,420 L214,275"/> 
            <glyph glyph-name="#" unicode="&#x23;" horiz-adv-x="538" d=" M301,788 L301,716 Q401,714 459.5,664 Q518,614 518,531 L518,516 L410,516 L410,523 Q410,575 382.5,599.5 Q355,624 301,630 L301,410 Q538,371 538,198 Q538,104 472.5,45 Q407,-14 301,-14 L301,-100 L251,-100 L251,-14 Q146,-14 79.5,44 Q13,102 13,209 L13,218 L127,218 Q126,213 126,207 Q126,84 251,73 L251,317 Q155,331 92.5,378.5 Q30,426 30,514 Q30,608 91.5,657.5 Q153,707 251,716 L251,788 M251,421 L251,629 Q198,625 168,597.5 Q138,570 138,525 Q138,478 167.5,456 Q197,434 251,421 M301,306 L301,72 Q357,74 391,107 Q425,140 425,192 Q425,281 301,306"/> 
            <glyph glyph-name="$" unicode="&#x24;" horiz-adv-x="918" d=" M731,725 L337,-31 L259,-31 L655,725 M174,708 Q332,708 373,659.5 Q414,611 414,518 Q414,418 372.5,366 Q331,314 251,314 Q171,314 129,364.5 Q87,415 87,512 Q87,606 174,708 M251,643 Q175,643 175,507 Q175,378 250,378 Q326,378 326,517 Q326,643 251,643 M678,380 Q836,380 877,331.5 Q918,283 918,190 Q918,90 876.5,38 Q835,-14 755,-14 Q675,-14 633,36.5 Q591,87 591,184 Q591,278 678,380 M755,315 Q679,315 679,179 Q679,50 754,50 Q830,50 830,189 Q830,315 755,315"/> 
            <glyph glyph-name="%" unicode="&#x25;" horiz-adv-x="662" d=" M580,340 Q571,234 522,165 L662,0 L522,0 L456,80 Q376,-15 256,-15 Q161,-15 97,40.5 Q33,96 33,191 Q33,261 78,315.5 Q123,370 195,403 Q124,490 124,560 Q124,629 173.5,673.5 Q223,718 300,718 Q375,718 423.5,673.5 Q472,629 472,560 Q472,445 346,378 L455,243 Q473,281 480,340 M289,447 Q372,496 372,557 Q372,590 351.5,611.5 Q331,633 300,633 Q268,633 247,613 Q226,593 226,563 Q226,526 285,452 M254,330 Q203,301 174,270.5 Q145,240 145,194 Q145,147 179,113.5 Q213,80 262,80 Q337,80 395,157"/> 
            <glyph glyph-name="&amp;" unicode="&#x26;" horiz-adv-x="189" d=" M170,405 L108,405 L89,696 L189,696"/> 
            <glyph glyph-name="'" unicode="&#x27;" horiz-adv-x="286" d=" M285,717 Q224,601 194,495.5 Q164,390 164,259 Q164,28 286,-191 L194,-191 Q121,-72 85.5,29 Q50,130 50,257 Q50,511 194,717"/> 
            <glyph glyph-name="(" unicode="&#x28;" horiz-adv-x="227" d=" M227,257 Q227,130 191.5,29 Q156,-72 83,-191 L-9,-191 Q113,28 113,259 Q113,390 83,495.5 Q53,601 -8,717 L83,717 Q227,511 227,257"/> 
            <glyph glyph-name=")" unicode="&#x29;" horiz-adv-x="352" d=" M352,582 L239,544 L308,450 L255,410 L184,509 L115,410 L60,450 L129,544 L18,582 L40,646 L151,604 L150,722 L219,722 L217,604 L328,646"/> 
            <glyph glyph-name="*" unicode="&#x2A;" horiz-adv-x="559" d=" M249,0 L249,210 L42,210 L42,305 L249,305 L249,515 L351,515 L351,305 L559,305 L559,210 L351,210 L351,0"/> 
            <glyph glyph-name="+" unicode="&#x2B;" horiz-adv-x="207" d=" M207,135 L207,33 Q207,-45 177,-92.5 Q147,-140 71,-157 L71,-97 Q133,-78 136,0 L71,0 L71,135"/> 
            <glyph glyph-name="," unicode="&#x2C;" horiz-adv-x="341" d=" M341,328 L341,222 L48,222 L48,328"/> 
            <glyph glyph-name="-" unicode="&#x2D;" horiz-adv-x="207" d=" M207,135 L207,0 L71,0 L71,135"/> 
            <glyph glyph-name="." unicode="&#x2E;" horiz-adv-x="370" d=" M370,729 L83,-17 L-18,-17 L271,729"/> 
            <glyph glyph-name="/" unicode="&#x2F;" horiz-adv-x="520" d=" M276,706 Q520,706 520,343 Q520,168 459,77 Q398,-14 280,-14 Q36,-14 36,345 Q36,522 97,614 Q158,706 276,706 M277,610 Q247,610 225,598.5 Q203,587 189.5,563.5 Q176,540 168,516.5 Q160,493 156.5,457 Q153,421 152,397.5 Q151,374 151,338 Q151,203 181.5,142 Q212,81 279,81 Q305,81 325.5,91.5 Q346,102 359,117 Q372,132 381,157 Q390,182 394.5,202.5 Q399,223 401.5,253.5 Q404,284 404.5,300.5 Q405,317 405,343 Q405,377 404.5,395.5 Q404,414 401,451.5 Q398,489 389.5,512 Q381,535 367.5,560 Q354,585 331,597.5 Q308,610 277,610"/> 
            <glyph glyph-name="0" unicode="&#x30;" horiz-adv-x="377" d=" M377,704 L377,0 L255,0 L255,484 L81,484 L81,568 Q263,568 285,704"/> 
            <glyph glyph-name="1" unicode="&#x31;" horiz-adv-x="502" d=" M501,101 L501,0 L23,0 Q24,47 36,86 Q48,125 63.5,152.5 Q79,180 109.5,208.5 Q140,237 164.5,255.5 Q189,274 232,303 Q235,305 261.5,322.5 Q288,340 294,344.5 Q300,349 321,365.5 Q342,382 348.5,392 Q355,402 366.5,419 Q378,436 382,453.5 Q386,471 386,491 Q386,546 355.5,577.5 Q325,609 273,609 Q243,609 221,599.5 Q199,590 186.5,575 Q174,560 166,536.5 Q158,513 155.5,492 Q153,471 152,443 L41,443 L41,461 Q41,574 104.5,640.5 Q168,707 276,707 Q378,707 440,649.5 Q502,592 502,497 Q502,459 490,425 Q478,391 464.5,370 Q451,349 418,321 Q385,293 369,282 Q353,271 310,242 Q185,161 160,101"/> 
            <glyph glyph-name="2" unicode="&#x32;" horiz-adv-x="518" d=" M44,475 Q47,583 108,645 Q169,707 272,707 Q369,707 429,655 Q489,603 489,519 Q489,468 462.5,429.5 Q436,391 391,376 Q450,361 484,317.5 Q518,274 518,211 Q518,111 449,48 Q380,-15 270,-15 Q161,-15 94,48 Q27,111 27,215 L27,230 L137,230 Q142,83 273,83 Q331,83 365,116.5 Q399,150 399,208 Q399,269 360,297 Q321,325 259,325 Q240,325 223,324 L223,410 L233,410 Q264,410 286,413.5 Q308,417 330.5,426.5 Q353,436 365,457.5 Q377,479 377,511 Q377,557 348,585 Q319,613 270,613 Q158,613 153,475"/> 
            <glyph glyph-name="3" unicode="&#x33;" horiz-adv-x="522" d=" M522,262 L522,166 L433,166 L433,0 L323,0 L322,166 L25,166 L25,279 L325,706 L433,706 L433,262 M324,262 L324,565 L119,262"/> 
            <glyph glyph-name="4" unicode="&#x34;" horiz-adv-x="515" d=" M477,696 L477,597 L198,597 L166,417 Q213,467 298,467 Q395,467 455,404 Q515,341 515,238 Q515,127 445,57 Q375,-13 265,-13 Q161,-13 96.5,44.5 Q32,102 28,199 L141,199 Q145,145 180,113 Q215,81 268,81 Q330,81 364,120.5 Q398,160 398,232 Q398,302 363,340.5 Q328,379 266,379 Q191,379 149,316 L49,319 L116,696"/> 
            <glyph glyph-name="5" unicode="&#x35;" horiz-adv-x="523" d=" M507,522 L397,522 Q379,618 291,618 Q266,618 245,608 Q224,598 210,585 Q196,572 185,547.5 Q174,523 168.5,506.5 Q163,490 157.5,459 Q152,428 151,416 Q150,404 147,376 Q205,462 307,462 Q404,462 463.5,398 Q523,334 523,231 Q523,124 456.5,55 Q390,-14 287,-14 Q166,-14 101,77 Q36,168 36,337 Q36,512 105,610 Q174,708 296,708 Q385,708 441,659 Q497,610 507,522 M284,371 Q228,371 195,332.5 Q162,294 162,230 Q162,163 196.5,122 Q231,81 287,81 Q342,81 375.5,121 Q409,161 409,227 Q409,292 375,331.5 Q341,371 284,371"/> 
            <glyph glyph-name="6" unicode="&#x36;" horiz-adv-x="514" d=" M514,696 L514,600 Q405,491 335,324.5 Q265,158 259,0 L134,0 Q138,142 217,317.5 Q296,493 401,591 L37,591 L37,696"/> 
            <glyph glyph-name="7" unicode="&#x37;" horiz-adv-x="524" d=" M160,377 Q113,394 86.5,432.5 Q60,471 60,523 Q60,605 121.5,657 Q183,709 281,709 Q375,709 435,657.5 Q495,606 495,526 Q495,419 396,377 Q460,355 492,315 Q524,275 524,208 Q524,109 456,48.5 Q388,-12 277,-12 Q167,-12 99.5,47 Q32,106 32,202 Q32,267 65.5,312.5 Q99,358 160,377 M280,617 Q228,617 197.5,589.5 Q167,562 167,516 Q167,470 198,442 Q229,414 279,414 Q329,414 359,441.5 Q389,469 389,516 Q389,562 359.5,589.5 Q330,617 280,617 M277,332 Q219,332 183,297.5 Q147,263 147,208 Q147,148 183,113 Q219,78 281,78 Q341,78 375,111.5 Q409,145 409,205 Q409,263 373,297.5 Q337,332 277,332"/> 
            <glyph glyph-name="8" unicode="&#x38;" horiz-adv-x="516" d=" M44,174 L154,174 Q158,131 187,104 Q216,77 264,77 Q391,77 402,322 Q345,233 246,233 Q152,233 91,297.5 Q30,362 30,463 Q30,570 97,639.5 Q164,709 268,709 Q325,709 369.5,688 Q414,667 441,633.5 Q468,600 485.5,553.5 Q503,507 509.5,461 Q516,415 516,364 Q516,295 503.5,232.5 Q491,170 463.5,112.5 Q436,55 383,20.5 Q330,-14 258,-14 Q169,-14 108.5,39 Q48,92 44,174 M264,613 Q210,613 177.5,572.5 Q145,532 145,466 Q145,401 178,363 Q211,325 266,325 Q321,325 355,364 Q389,403 389,466 Q389,533 355,573 Q321,613 264,613"/> 
            <glyph glyph-name="9" unicode="&#x39;" horiz-adv-x="207" d=" M207,135 L207,0 L71,0 L71,135 M207,511 L207,376 L71,376 L71,511"/> 
            <glyph glyph-name=":" unicode="&#x3A;" horiz-adv-x="207" d=" M207,511 L207,376 L71,376 L71,511 M207,135 L207,33 Q207,-45 177,-92.5 Q147,-140 71,-157 L71,-97 Q133,-78 136,0 L71,0 L71,135"/> 
            <glyph glyph-name=";" unicode="&#x3B;" horiz-adv-x="559" d=" M42,208 L42,308 L559,507 L559,401 L171,258 L559,115 L559,7"/> 
            <glyph glyph-name="&lt;" unicode="&#x3C;" horiz-adv-x="559" d=" M42,317 L42,413 L559,413 L559,317 M42,102 L42,198 L559,198 L559,102"/> 
            <glyph glyph-name="=" unicode="&#x3D;" horiz-adv-x="559" d=" M559,208 L42,7 L42,115 L430,258 L42,401 L42,507 L559,308"/> 
            <glyph glyph-name="&gt;" unicode="&#x3E;" horiz-adv-x="506" d=" M208,0 L208,127 L337,127 L337,0 M219,197 Q219,262 232.5,302.5 Q246,343 288,382 Q292,386 307.5,399.5 Q323,413 328,418 Q333,423 345,435.5 Q357,448 361.5,456 Q366,464 372.5,476.5 Q379,489 381.5,501.5 Q384,514 384,528 Q384,572 355,600 Q326,628 280,628 Q163,628 159,486 L44,486 Q49,597 109,661.5 Q169,726 282,726 Q383,726 444.5,671.5 Q506,617 506,528 Q506,495 499,469 Q492,443 474,420 Q456,397 442,383 Q428,369 397,343 Q347,300 337,280.5 Q327,261 327,197"/> 
            <glyph glyph-name="?" unicode="&#x3F;" horiz-adv-x="771" d=" M695,129 L723,91 Q645,34 573,8.5 Q501,-17 417,-17 Q254,-17 141.5,83.5 Q29,184 29,346 Q29,509 145.5,619 Q262,729 432,729 Q581,729 676,645.5 Q771,562 771,430 Q771,325 708.5,246 Q646,167 563,167 Q526,167 503,187 Q480,207 480,240 Q480,248 483,262 Q433,167 344,167 Q283,167 245.5,209.5 Q208,252 208,320 Q208,417 268.5,489.5 Q329,562 409,562 Q494,562 523,491 L538,546 L620,546 L555,327 Q543,287 543,266 Q543,247 554,236.5 Q565,226 585,226 Q635,226 676,290.5 Q717,355 717,435 Q717,544 638,612 Q559,680 433,680 Q283,680 183,584 Q83,488 83,344 Q83,207 177.5,119.5 Q272,32 420,32 Q563,32 695,129 M493,436 Q493,465 475,484 Q457,503 429,503 Q392,503 362,468.5 Q332,434 317.5,392 Q303,350 303,315 Q303,274 320.5,250 Q338,226 369,226 Q405,226 435,266.5 Q465,307 479,354.5 Q493,402 493,436"/> 
            <glyph glyph-name="@" unicode="&#x40;" horiz-adv-x="675" d=" M400,713 L675,0 L541,0 L473,189 L191,189 L121,0 L-8,0 L267,713 M440,283 L334,583 L223,283"/> 
            <glyph glyph-name="A" unicode="&#x41;" horiz-adv-x="662" d=" M74,712 L399,712 Q511,712 570.5,663.5 Q630,615 630,533 Q630,482 602,441.5 Q574,401 528,383 Q590,368 626,323 Q662,278 662,210 Q662,116 599.5,58 Q537,0 437,0 L74,0 M196,611 L196,415 L366,415 Q438,415 472,437.5 Q506,460 506,513 Q506,573 470.5,592 Q435,611 370,611 M196,325 L196,102 L383,102 Q455,102 496,126 Q537,150 537,213 Q537,248 524.5,271.5 Q512,295 488.5,306 Q465,317 440,321 Q415,325 381,325"/> 
            <glyph glyph-name="B" unicode="&#x42;" horiz-adv-x="685" d=" M685,271 Q675,140 591.5,61.5 Q508,-17 375,-17 Q224,-17 133,85 Q42,187 42,356 Q42,458 81,541.5 Q120,625 198,676.5 Q276,728 381,728 Q494,728 578,665.5 Q662,603 679,485 L555,485 Q542,549 495,585.5 Q448,622 379,622 Q308,622 258.5,582 Q209,542 188.5,483.5 Q168,425 168,356 Q168,304 180,258 Q192,212 216,173.5 Q240,135 281.5,112 Q323,89 378,89 Q537,89 560,271"/> 
            <glyph glyph-name="C" unicode="&#x43;" horiz-adv-x="684" d=" M75,712 L346,712 Q420,712 476,696.5 Q532,681 579,639 Q684,545 684,368 Q684,179 584,79 Q540,35 488.5,17.5 Q437,0 353,0 L75,0 M199,606 L199,105 L346,105 Q463,105 511,173 Q559,241 559,362 Q559,477 505,541.5 Q451,606 338,606"/> 
            <glyph glyph-name="D" unicode="&#x44;" horiz-adv-x="593" d=" M587,712 L587,607 L198,607 L198,418 L559,418 L559,317 L198,317 L198,107 L593,107 L593,0 L74,0 L74,712"/> 
            <glyph glyph-name="E" unicode="&#x45;" horiz-adv-x="568" d=" M568,712 L568,606 L201,606 L201,412 L523,412 L523,311 L201,311 L201,0 L75,0 L75,712"/> 
            <glyph glyph-name="F" unicode="&#x46;" horiz-adv-x="700" d=" M700,381 L700,0 L620,0 L601,85 Q516,-17 379,-17 Q229,-17 135.5,85 Q42,187 42,351 Q42,512 136,619.5 Q230,727 390,727 Q506,727 592.5,662 Q679,597 691,485 L570,485 Q559,549 510.5,585.5 Q462,622 389,622 Q286,622 227,550 Q168,478 168,353 Q168,227 227.5,155.5 Q287,84 393,84 Q486,84 536.5,142 Q587,200 587,285 L395,285 L395,381"/> 
            <glyph glyph-name="G" unicode="&#x47;" horiz-adv-x="649" d=" M649,712 L649,0 L524,0 L524,320 L198,320 L198,0 L73,0 L73,712 L198,712 L198,429 L524,429 L524,712"/> 
            <glyph glyph-name="H" unicode="&#x48;" horiz-adv-x="202" d=" M202,712 L202,0 L76,0 L76,712"/> 
            <glyph glyph-name="I" unicode="&#x49;" horiz-adv-x="470" d=" M470,712 L470,211 Q470,99 414.5,41 Q359,-17 251,-17 Q130,-17 77.5,44 Q25,105 25,223 L25,250 L144,250 L144,211 Q144,150 166,117.5 Q188,85 247,85 Q274,85 293,93.5 Q312,102 322,113.5 Q332,125 337.5,146 Q343,167 344,183.5 Q345,200 345,228 L345,712"/> 
            <glyph glyph-name="J" unicode="&#x4A;" horiz-adv-x="689" d=" M671,712 L386,428 L689,0 L534,0 L300,341 L198,239 L198,0 L74,0 L74,712 L198,712 L198,389 L513,712"/> 
            <glyph glyph-name="K" unicode="&#x4B;" horiz-adv-x="562" d=" M562,108 L562,0 L74,0 L74,712 L200,712 L200,108"/> 
            <glyph glyph-name="L" unicode="&#x4C;" horiz-adv-x="815" d=" M815,712 L815,0 L696,0 L696,549 L498,0 L396,0 L193,549 L193,0 L75,0 L75,712 L250,712 L449,155 L641,712"/> 
            <glyph glyph-name="M" unicode="&#x4D;" horiz-adv-x="652" d=" M652,712 L652,0 L523,0 L191,524 L191,0 L73,0 L73,712 L204,712 L532,187 L532,712"/> 
            <glyph glyph-name="N" unicode="&#x4E;" horiz-adv-x="722" d=" M382,729 Q533,729 627.5,625.5 Q722,522 722,356 Q722,190 627,86.5 Q532,-17 380,-17 Q227,-17 132.5,86 Q38,189 38,356 Q38,518 130.5,623.5 Q223,729 382,729 M380,624 Q282,624 223,551.5 Q164,479 164,358 Q164,234 222.5,161 Q281,88 382,88 Q479,88 537.5,161.5 Q596,235 596,357 Q596,479 537.5,551.5 Q479,624 380,624"/> 
            <glyph glyph-name="O" unicode="&#x4F;" horiz-adv-x="634" d=" M77,712 L386,712 Q501,712 567.5,657.5 Q634,603 634,495 Q634,393 572,333.5 Q510,274 403,274 L202,274 L202,0 L77,0 M202,608 L202,375 L376,375 Q512,375 512,492 Q512,608 365,608"/> 
            <glyph glyph-name="P" unicode="&#x50;" horiz-adv-x="721" d=" M713,2 L652,-66 L546,24 Q481,-17 377,-17 Q226,-17 132,85.5 Q38,188 38,354 Q38,519 133.5,623 Q229,727 381,727 Q531,727 626,623.5 Q721,520 721,357 Q721,272 694.5,200 Q668,128 620,82 M532,159 Q596,240 596,356 Q596,477 537,549.5 Q478,622 379,622 Q281,622 222.5,549.5 Q164,477 164,356 Q164,232 223,158.5 Q282,85 381,85 Q423,85 461,102 L388,164 L448,232"/> 
            <glyph glyph-name="Q" unicode="&#x51;" horiz-adv-x="677" d=" M74,712 L411,712 Q517,712 584,664.5 Q651,617 651,514 Q651,450 620,404.5 Q589,359 533,339 Q559,333 578,321 Q597,309 607.5,295 Q618,281 625,259 Q632,237 634.5,220.5 Q637,204 639,177 Q640,170 641.5,150 Q643,130 643.5,123.5 Q644,117 645.5,101 Q647,85 648,78.5 Q649,72 651.5,59.5 Q654,47 656,40.5 Q658,34 661,25.5 Q664,17 668,11 Q672,5 677,0 L543,0 Q540,4 537.5,9.5 Q535,15 533,21.5 Q531,28 530,33.5 Q529,39 527.5,48.5 Q526,58 525.5,64 Q525,70 524,82 Q523,94 522.5,100 Q522,106 521,121 Q520,136 520,142 Q515,229 483.5,261.5 Q452,294 364,294 L198,294 L198,0 L74,0 M198,610 L198,387 L363,387 Q399,387 424,391 Q449,395 474.5,405.5 Q500,416 513.5,440 Q527,464 527,501 Q527,535 515,557.5 Q503,580 480.5,591 Q458,602 434.5,606 Q411,610 379,610"/> 
            <glyph glyph-name="R" unicode="&#x52;" horiz-adv-x="615" d=" M587,502 L468,502 Q457,627 313,627 Q249,627 213,600.5 Q177,574 177,528 Q177,485 203.5,469 Q230,453 321,430 Q345,423 358,420 Q477,390 520,366 Q615,315 615,207 Q615,160 599,122 Q583,84 556,58.5 Q529,33 492,16 Q455,-1 415,-8.5 Q375,-16 332,-16 Q198,-16 115,48 Q32,112 32,236 L155,236 Q155,158 206,120.5 Q257,83 339,83 Q411,83 451.5,112.5 Q492,142 492,195 Q492,229 470.5,250.5 Q449,272 424,281 Q399,290 337,306 Q330,308 326,309 Q193,343 151,365 Q64,410 58,504 Q58,511 58,518 Q58,613 129.5,669.5 Q201,726 321,726 Q437,726 510,671 Q583,616 587,502"/> 
            <glyph glyph-name="S" unicode="&#x53;" horiz-adv-x="586" d=" M586,712 L586,604 L359,604 L359,0 L234,0 L234,604 L7,604 L7,712"/> 
            <glyph glyph-name="T" unicode="&#x54;" horiz-adv-x="653" d=" M653,712 L653,276 Q653,-14 363,-14 Q212,-14 140.5,58 Q69,130 69,278 L69,712 L194,712 L194,253 Q194,89 365,89 Q417,89 450.5,103 Q484,117 500,146 Q516,175 522,208.5 Q528,242 528,292 L528,712"/> 
            <glyph glyph-name="U" unicode="&#x55;" horiz-adv-x="617" d=" M-5,712 L126,712 L306,149 L490,712 L617,712 L373,0 L234,0"/> 
            <glyph glyph-name="V" unicode="&#x56;" horiz-adv-x="940" d=" M8,712 L135,712 L265,170 L411,712 L538,712 L679,170 L813,712 L940,712 L743,0 L616,0 L472,547 L325,0 L196,0"/> 
            <glyph glyph-name="W" unicode="&#x57;" horiz-adv-x="649" d=" M-6,0 L248,369 L12,712 L161,712 L323,460 L492,712 L632,712 L396,369 L649,0 L497,0 L319,272 L138,0"/> 
            <glyph glyph-name="X" unicode="&#x58;" horiz-adv-x="655" d=" M655,712 L387,283 L387,0 L264,0 L264,283 L-5,712 L139,712 L328,397 L515,712"/> 
            <glyph glyph-name="Y" unicode="&#x59;" horiz-adv-x="604" d=" M592,712 L592,613 L177,108 L604,108 L604,0 L19,0 L19,103 L431,604 L49,604 L49,712"/> 
            <glyph glyph-name="Z" unicode="&#x5A;" horiz-adv-x="295" d=" M295,720 L295,631 L177,631 L177,-91 L295,-91 L295,-180 L71,-180 L71,720"/> 
            <glyph glyph-name="[" unicode="&#x5B;" horiz-adv-x="351" d=" M259,-17 L3,729 L95,729 L351,-17"/> 
            <glyph glyph-name="\" unicode="&#x5C;" horiz-adv-x="225" d=" M1,720 L225,720 L225,-180 L1,-180 L1,-91 L119,-91 L119,631 L1,631"/> 
            <glyph glyph-name="]" unicode="&#x5D;" horiz-adv-x="520" d=" M80,271 L255,696 L345,696 L520,271 L417,271 L298,569 L183,271"/> 
            <glyph glyph-name="^" unicode="&#x5E;" horiz-adv-x="500" d=" M0,-125 L0,-75 L500,-75 L500,-125"/> 
            <glyph glyph-name="_" unicode="&#x5F;" horiz-adv-x="189" d=" M98,727 L189,584 L106,584 L-36,727"/> 
            <glyph glyph-name="`" unicode="&#x60;" horiz-adv-x="546" d=" M55,357 Q73,532 281,532 Q378,532 435.5,494 Q493,456 493,376 L493,114 Q493,92 498.5,84 Q504,76 520,76 Q532,76 546,78 L546,-2 Q502,-13 472,-13 Q399,-13 388,49 Q323,-13 207,-13 Q127,-13 80,28.5 Q33,70 33,141 Q33,163 38,182 Q43,201 49.5,215 Q56,229 70.5,241 Q85,253 94.5,261 Q104,269 125.5,276 Q147,283 157.5,286.5 Q168,290 194,294 Q220,298 228.5,299.5 Q237,301 264,304 Q325,312 347,317.5 Q369,323 377,334 Q384,342 384,371 Q384,449 278,449 Q222,449 196,428 Q170,407 163,357 M383,259 Q370,252 353,246.5 Q336,241 325.5,239.5 Q315,238 292.5,235 Q270,232 263,231 Q242,228 230,225.5 Q218,223 200.5,217 Q183,211 173.5,202.5 Q164,194 157,179.5 Q150,165 150,145 Q150,108 174.5,88 Q199,68 243,68 Q319,68 360,109 Q383,132 383,198"/> 
            <glyph glyph-name="a" unicode="&#x61;" horiz-adv-x="571" d=" M174,712 L174,449 Q231,529 343,529 Q446,529 508.5,456 Q571,383 571,262 Q571,137 507,61.5 Q443,-14 337,-14 Q220,-14 168,70 L168,0 L61,0 L61,712 M314,438 Q247,439 208.5,390.5 Q170,342 170,257 Q170,174 208.5,126 Q247,78 314,78 Q378,78 417,127.5 Q456,177 456,260 Q456,342 417.5,390 Q379,438 314,438"/> 
            <glyph glyph-name="b" unicode="&#x62;" horiz-adv-x="528" d=" M528,195 Q516,100 452,43.5 Q388,-13 291,-13 Q175,-13 106,60.5 Q37,134 37,253 Q37,381 106.5,456.5 Q176,532 294,532 Q393,532 453.5,482 Q514,432 524,343 L411,343 Q401,392 371,418 Q341,444 295,444 Q229,444 191,394.5 Q153,345 153,259 Q153,173 189.5,125 Q226,77 291,77 Q342,77 374.5,107.5 Q407,138 416,195"/> 
            <glyph glyph-name="c" unicode="&#x63;" horiz-adv-x="549" d=" M549,712 L549,0 L442,0 L442,71 Q393,-14 277,-14 Q168,-14 103.5,60 Q39,134 39,259 Q39,383 102.5,456.5 Q166,530 273,530 Q382,530 437,449 L437,712 M294,438 Q229,438 191.5,390.5 Q154,343 154,261 Q154,176 192.5,127 Q231,78 298,78 Q365,78 402.5,126 Q440,174 440,259 Q440,344 401.5,391 Q363,438 294,438"/> 
            <glyph glyph-name="d" unicode="&#x64;" horiz-adv-x="529" d=" M522,161 Q503,77 439.5,30 Q376,-17 288,-17 Q171,-17 102.5,58.5 Q34,134 34,252 Q34,373 104.5,452 Q175,531 284,531 Q397,531 463,453.5 Q529,376 529,242 L529,230 L148,230 Q150,152 187,109.5 Q224,67 290,67 Q337,67 366.5,89.5 Q396,112 413,161 M415,306 Q410,371 374.5,408.5 Q339,446 283,446 Q227,446 192.5,410 Q158,374 150,306"/> 
            <glyph glyph-name="e" unicode="&#x65;" horiz-adv-x="316" d=" M316,713 L316,625 Q283,628 266,628 Q231,628 219,615.5 Q207,603 207,566 L207,516 L305,516 L305,433 L208,433 L208,0 L95,0 L95,433 L10,433 L10,516 L95,516 L95,557 Q95,638 130,677 Q165,716 248,716 Q282,716 316,713"/> 
            <glyph glyph-name="f" unicode="&#x66;" horiz-adv-x="533" d=" M533,516 L533,60 Q533,-73 476.5,-137 Q420,-201 285,-201 Q73,-201 54,-44 L168,-44 Q184,-121 288,-121 Q359,-121 391.5,-85 Q424,-49 424,31 L424,92 Q368,5 260,5 Q157,5 96.5,74.5 Q36,144 36,262 Q36,383 99,456.5 Q162,530 266,530 Q321,530 358,509.5 Q395,489 427,444 L427,516 M286,438 Q222,438 185.5,392 Q149,346 149,264 Q149,186 186.5,140 Q224,94 286,94 Q350,94 387,141.5 Q424,189 424,270 Q424,349 387.5,393.5 Q351,438 286,438"/> 
            <glyph glyph-name="g" unicode="&#x67;" horiz-adv-x="515" d=" M174,712 L174,445 Q231,529 337,529 Q421,529 468,483.5 Q515,438 515,350 L515,0 L400,0 L400,313 Q400,372 379.5,403 Q359,434 300,434 Q234,434 204,391 Q174,348 174,277 L174,0 L61,0 L61,712"/> 
            <glyph glyph-name="h" unicode="&#x68;" horiz-adv-x="177" d=" M177,715 L177,603 L63,603 L63,715 M177,516 L177,0 L63,0 L63,516"/> 
            <glyph glyph-name="i" unicode="&#x69;" horiz-adv-x="181" d=" M181,516 L181,-27 Q181,-118 147.5,-158 Q114,-198 29,-198 Q14,-198 -19,-195 L-19,-102 Q7,-104 8,-104 Q40,-104 53.5,-95 Q67,-86 67,-57 L67,516 M181,716 L181,603 L67,603 L67,716"/> 
            <glyph glyph-name="j" unicode="&#x6A;" horiz-adv-x="536" d=" M518,516 L320,327 L536,0 L397,0 L240,249 L172,185 L172,0 L61,0 L61,712 L172,712 L172,311 L378,516"/> 
            <glyph glyph-name="k" unicode="&#x6B;" horiz-adv-x="177" d=" M177,712 L177,0 L64,0 L64,712"/> 
            <glyph glyph-name="l" unicode="&#x6C;" horiz-adv-x="811" d=" M169,516 L169,443 Q233,530 331,530 Q382,530 419.5,507 Q457,484 475,442 Q537,530 642,530 Q715,530 763,486.5 Q811,443 811,366 L811,0 L697,0 L697,317 Q697,372 678,403 Q659,434 605,434 Q550,434 521,399.5 Q492,365 492,303 L492,0 L378,0 L378,323 Q378,378 361.5,406 Q345,434 293,434 Q235,434 205,396.5 Q175,359 175,297 L175,0 L61,0 L61,516"/> 
            <glyph glyph-name="m" unicode="&#x6D;" horiz-adv-x="515" d=" M169,516 L169,440 Q231,530 340,530 Q428,530 471.5,482 Q515,434 515,344 L515,0 L401,0 L401,300 Q401,331 398,351.5 Q395,372 385.5,393 Q376,414 355,424.5 Q334,435 301,435 Q175,435 175,278 L175,0 L61,0 L61,516"/> 
            <glyph glyph-name="n" unicode="&#x6E;" horiz-adv-x="557" d=" M299,531 Q417,531 487,457 Q557,383 557,258 Q557,132 487.5,58 Q418,-16 299,-16 Q178,-16 107,58 Q36,132 36,258 Q36,383 107.5,457 Q179,531 299,531 M365,441 Q229,441 190,392 Q151,343 151,258 Q151,171 190,122 Q229,73 298,73 Q365,73 403.5,122.5 Q442,172 442,259 Q442,344 365,441"/> 
            <glyph glyph-name="o" unicode="&#x6F;" horiz-adv-x="572" d=" M169,516 L169,447 Q221,531 337,531 Q444,531 508,456 Q572,381 572,256 Q572,134 509.5,60.5 Q447,-13 343,-13 Q233,-13 175,68 L175,-191 L62,-191 L62,516 M314,439 Q247,439 209,391 Q171,343 171,258 Q171,174 209.5,126 Q248,78 316,78 Q381,78 419,126 Q457,174 457,256 Q457,340 418.5,389.5 Q380,439 314,439"/> 
            <glyph glyph-name="p" unicode="&#x70;" horiz-adv-x="549" d=" M549,516 L549,-191 L437,-191 L437,69 Q376,-13 268,-13 Q163,-13 101,59.5 Q39,132 39,256 Q39,383 102.5,457 Q166,531 275,531 Q389,531 442,448 L442,516 M294,439 Q230,439 192,389.5 Q154,340 154,255 Q154,173 192,125.5 Q230,78 296,78 Q364,78 402,126.5 Q440,175 440,261 Q440,345 401.5,392 Q363,439 294,439"/> 
            <glyph glyph-name="q" unicode="&#x71;" horiz-adv-x="352" d=" M352,526 L352,417 Q322,420 312,420 Q163,420 163,227 L163,0 L50,0 L50,516 L157,516 L157,413 Q212,528 330,528"/> 
            <glyph glyph-name="r" unicode="&#x72;" horiz-adv-x="488" d=" M469,366 L360,366 Q350,448 248,448 Q204,448 180,432 Q156,416 156,388 Q156,379 157.5,372 Q159,365 163.5,359.5 Q168,354 171.5,350 Q175,346 184,342 Q193,338 198.5,335.5 Q204,333 217,329.5 Q230,326 237.5,324 Q245,322 262,318.5 Q279,315 288,313 Q327,304 344.5,299.5 Q362,295 395.5,281.5 Q429,268 445,253.5 Q461,239 474.5,213.5 Q488,188 488,155 Q488,77 427,31 Q366,-15 263,-15 Q153,-15 94,31 Q35,77 31,165 L140,165 Q149,68 265,68 Q315,68 345.5,88.5 Q376,109 376,143 Q376,160 368.5,172 Q361,184 344,192.5 Q327,201 311.5,205.5 Q296,210 270,216 Q266,217 264,217.5 Q262,218 259,218.5 Q256,219 253,220 Q143,247 113,262 Q42,296 42,375 Q42,448 98,489.5 Q154,531 253,531 Q348,531 408.5,490 Q469,449 469,366"/> 
            <glyph glyph-name="s" unicode="&#x73;" horiz-adv-x="312" d=" M312,516 L312,433 L208,433 L208,161 Q208,137 209,127.5 Q210,118 215,106.5 Q220,95 232.5,91 Q245,87 267,87 Q295,87 312,89 L312,-1 Q278,-5 235,-5 Q205,-5 182.5,-0.5 Q160,4 145,10 Q130,16 120,30.5 Q110,45 104.5,54.5 Q99,64 96.5,88 Q94,112 94,124.5 Q94,137 94,168 Q94,172 94,174.5 Q94,177 94,180.5 Q94,184 94,187 L94,433 L8,433 L8,516 L94,516 L94,671 L208,671 L208,516"/> 
            <glyph glyph-name="t" unicode="&#x74;" horiz-adv-x="513" d=" M513,516 L513,0 L406,0 L406,77 Q341,-14 236,-14 Q151,-14 105.5,34.5 Q60,83 60,174 L60,516 L174,516 L174,221 Q174,194 175,177.5 Q176,161 181.5,140.5 Q187,120 197.5,109 Q208,98 227.5,90 Q247,82 275,82 Q339,82 369,127.5 Q399,173 399,243 L399,516"/> 
            <glyph glyph-name="u" unicode="&#x75;" horiz-adv-x="509" d=" M8,516 L132,516 L264,119 L391,516 L509,516 L324,-1 L196,-1"/> 
            <glyph glyph-name="v" unicode="&#x76;" horiz-adv-x="765" d=" M12,516 L133,516 L235,129 L332,516 L447,516 L542,129 L649,516 L765,516 L602,0 L485,0 L388,383 L292,0 L172,0"/> 
            <glyph glyph-name="w" unicode="&#x77;" horiz-adv-x="532" d=" M198,271 L19,516 L157,516 L265,357 L378,516 L510,516 L335,277 L532,0 L395,0 L264,190 L137,0 L3,0"/> 
            <glyph glyph-name="x" unicode="&#x78;" horiz-adv-x="515" d=" M515,516 L324,10 Q321,3 313,-19.5 Q305,-42 302,-50 Q299,-58 290.5,-78 Q282,-98 277,-106 Q272,-114 262,-130 Q252,-146 243.5,-153 Q235,-160 222.5,-170.5 Q210,-181 197,-185.5 Q184,-190 167.5,-193.5 Q151,-197 132,-197 Q100,-197 53,-191 L53,-95 Q89,-102 113,-102 Q125,-102 135,-98.5 Q145,-95 153,-86.5 Q161,-78 167,-70.5 Q173,-63 178.5,-49.5 Q184,-36 187,-28.5 Q190,-21 195,-5 Q200,11 201,15 L3,516 L128,516 L266,136 L396,516"/> 
            <glyph glyph-name="y" unicode="&#x79;" horiz-adv-x="477" d=" M462,516 L462,436 L170,92 L477,92 L477,0 L22,0 L22,87 L310,426 L42,426 L42,516"/> 
            <glyph glyph-name="z" unicode="&#x7A;" horiz-adv-x="320" d=" M-24,300 Q45,311 74.5,339.5 Q104,368 104,429 L104,505 Q104,621 156.5,668 Q209,715 320,720 L320,659 Q257,653 229.5,620 Q202,587 202,517 L202,459 Q202,372 173.5,326 Q145,280 63,270 Q148,257 175,213 Q202,169 202,80 L202,20 Q202,-45 229,-79.5 Q256,-114 320,-119 L320,-180 Q205,-174 154.5,-129 Q104,-84 104,33 L104,92 Q104,166 79,196 Q54,226 -24,239"/> 
            <glyph glyph-name="{" unicode="&#x7B;" horiz-adv-x="161" d=" M61,-214 L61,786 L161,786 L161,-214"/> 
            <glyph glyph-name="|" unicode="&#x7C;" horiz-adv-x="320" d=" M320,239 Q242,226 217,196 Q192,166 192,92 L192,33 Q192,-84 141.5,-129 Q91,-174 -24,-180 L-24,-119 Q40,-114 67,-79.5 Q94,-45 94,20 L94,80 Q94,169 121,213 Q148,257 233,270 Q151,280 122.5,326 Q94,372 94,459 L94,517 Q94,587 66.5,620 Q39,653 -24,659 L-24,720 Q87,715 139.5,668 Q192,621 192,505 L192,429 Q192,368 221.5,339.5 Q251,311 320,300"/> 
            <glyph glyph-name="}" unicode="&#x7D;" horiz-adv-x="567" d=" M567,340 Q559,261 522,219 Q485,177 424,177 Q391,177 290,209 Q283,212 261,219.5 Q239,227 225,232 Q211,237 193.5,241.5 Q176,246 165,246 Q139,246 120.5,226.5 Q102,207 98,175 L33,175 Q40,245 75,292 Q110,339 175,339 Q205,339 310,305 Q320,302 337.5,296 Q355,290 362.5,287.5 Q370,285 382,281 Q394,277 401.5,275.5 Q409,274 418.5,273 Q428,272 437,272 Q490,272 502,340"/> 
            <glyph glyph-name="~" unicode="&#x7E;" horiz-adv-x="554" d=" M218,383 L364,383 L364,320 L246,320 L246,319 Q258,283 258,250 Q258,208 235,170.5 Q212,133 158,89 Q213,114 259,114 Q292,114 335,102 Q386,87 409,87 Q464,87 503,126 L554,41 Q499,-14 403,-14 Q371,-14 288,10 Q231,27 193,27 Q151,27 90,-12 L36,69 Q145,143 145,237 Q145,272 122,320 L33,320 L33,383 L91,383 Q75,404 62,446.5 Q49,489 49,516 Q49,607 115.5,664 Q182,721 289,721 Q404,721 467.5,658 Q531,595 531,482 L418,482 Q413,623 289,623 Q237,623 203.5,591 Q170,559 170,510 Q170,502 171.5,493 Q173,484 174.5,477 Q176,470 180,459.5 Q184,449 186,444 Q188,439 194,427.5 Q200,416 201.5,413 Q203,410 210,397 Q217,384 218,383"/> 
            <glyph glyph-name=" " unicode="&#xA0;" horiz-adv-x="523" d=" M523,518 L523,422 L331,422 L331,130 L523,130 L523,34 L331,34 L331,-159 L223,-159 L223,34 L33,34 L33,130 L223,130 L223,422 L33,422 L33,518 L223,518 L223,712 L331,712 L331,518"/> 
            <glyph glyph-name="¡" unicode="&#xA1;" horiz-adv-x="559" d=" M249,115 L249,273 L42,273 L42,369 L249,369 L249,531 L351,531 L351,369 L559,369 L559,273 L351,273 L351,115 M42,-16 L42,79 L559,79 L559,-16"/> 
            <glyph glyph-name="£" unicode="&#xA3;" horiz-adv-x="522" d=" M34,160 L100,226 Q63,286 63,346 Q63,412 100,466 L34,532 L92,590 L158,524 Q207,561 278,561 Q340,561 399,524 L464,590 L522,532 L456,466 Q493,417 493,345 Q493,284 456,226 L522,160 L464,102 L398,168 Q348,131 279,131 Q212,131 158,168 L92,102 M331,474 Q225,474 187.5,436.5 Q150,399 150,346 Q150,293 187.5,255.5 Q225,218 278,218 Q331,218 368.5,255.5 Q406,293 406,346 Q406,399 331,474"/> 
            </font>
</defs>
</svg>
