<?xml version="1.0" standalone="no"?><!DOCTYPE svg PUBLIC "-//W3C//DTD SVG 1.1//EN" "http://www.w3.org/Graphics/SVG/1.1/DTD/svg11.dtd"><svg width="293" height="444" viewBox="0 0 293 444" xmlns="http://www.w3.org/2000/svg" xmlns:xlink="http://www.w3.org/1999/xlink"><svg version="1" width="88" height="88" viewBox="0 0 66.000000 66.000000" id="arrow-go-beta"/><svg width="293" height="356" viewBox="0 0 293 356" id="logo_svg" y="88"><path fill="#6c0099" d="M0 0h293v356H0V0z"/><path fill="#bb17ff" d="M117.11 8.39c10.22-1.27 20.44-3.4 30.8-2.73 33.71.08 67.13 12.76 92.61 34.83 16.17 13.89 28.83 31.67 37.12 51.27 1.77 5.81 4.74 11.24 5.65 17.31 2.97 12.09 4.94 24.54 4.47 37.03-1.28 19.45-6.21 38.65-14.54 56.27-12.85 28.84-31.81 54.45-52.57 78.06-3.65 4.09-6.91 8.54-11.05 12.16-6.66 7.32-13.73 14.28-20.94 21.06-2.05 1.97-4.22 3.8-6.15 5.89-3.07 2.57-5.89 5.42-8.88 8.08-9.18 8-18.46 15.86-28.15 23.24-3-2.45-6-4.9-9.01-7.34-31.84-26.68-61.53-56.19-86.33-89.61-2.87-3.36-4.71-7.49-7.91-10.6-.11-.44-.32-1.33-.43-1.77-6.44-8.31-11.34-17.71-16.35-26.91-11.01-20.91-18.61-43.86-20.15-67.54-.64-12.53 1.17-25.08 4.23-37.21.66-4.02 1.89-7.9 3.48-11.65 7.71-22.29 21.66-42.3 39.47-57.74 14.72-12.65 31.95-22.43 50.5-28.2 4.76-1.13 9.38-2.73 14.13-3.9z" stroke-width="5" stroke="#fff"/><path fill="#fff" d="M134.34 42.29c11.91-1.6 23.99-.56 35.76 1.47 8.1 2.15 16.18 4.57 23.78 8.15 19.88 9.51 36.77 25.38 46.99 44.94 4.46 8.33 7.24 17.41 9.4 26.56 1.83 12.02 1.78 24.33.11 36.37-3.24 15-9.25 29.61-18.89 41.66-15.16 19.99-38.04 33.8-62.58 38.63-27.29 5.54-56.85.6-80.26-14.67-14.42-8.9-26.28-21.78-34.57-36.51-11.65-21.41-15.63-47.35-9-70.98 7.69-31.82 32.73-58.3 63.28-69.47 8.42-2.93 17.02-5.61 25.98-6.15z"/><path fill="#802faf" d="M136.41 54.55c21.14-2.39 43.1 2.62 61.16 13.89 15.39 9.76 27.99 24.1 34.85 41.05 3.12 6.07 4.13 12.86 5.48 19.47 2.33 13.07.65 26.49-2.85 39.19-4.68 12.8-11.57 24.95-21.34 34.57-23.45 23.74-60.28 33.32-92.27 23.76-22.94-5.95-43.33-21.4-54.98-42.06-10.25-17.3-13.52-38.33-9.83-58.03.71-7.4 3.94-14.16 6.73-20.93 8.9-18.74 24.67-34.06 43.55-42.6 9.2-4.66 19.38-6.76 29.5-8.31z"/><path fill="#fff" d="M97.94 84.91c13.26-10.67 30.13-16.23 47.02-16.96 20.6-.23 41.42 7.38 56.32 21.77 7.16 7.14 13.14 15.54 16.98 24.93 4.75 12.58 6.75 26.45 3.97 39.73-4.46 25.46-23.91 47.28-48.25 55.62-6.78 3.08-14.26 3.66-21.54 4.7-8.2 1.02-16.36-.7-24.42-1.96-4.25-.89-8.15-2.89-12.31-4.06-19.97-8.6-36.27-25.77-42.58-46.69-2.13-9.17-4.15-18.65-2.56-28.07 1.2-6.81 2.1-13.84 5.19-20.11 4.84-11.27 12.47-21.37 22.18-28.9z"/><path fill="#802faf" d="M140.91 91.89c3.54-1.23 7.4-1.33 10.93.02 1.05 2.56 2.39 5.13 2.18 7.99 0 10.92-.08 21.85.02 32.78 4.21 3.55 7.04 8.76 5.99 14.4 3.57 4.07 7.43 7.86 11.24 11.7 5.15 5 11.54 9.32 14.33 16.19-1.16 2.4-1.56 6.12-4.74 6.67-4.01 1.23-6.95-2.49-9.9-4.54-7.16-6.44-13.85-13.42-20.94-19.94-2.86-1.16-6.15-.81-8.89-2.33-5.67-2.42-8.41-9.92-5.84-15.47.88-2.52 2.83-4.4 4.63-6.29-.12-11.03-.02-22.06-.08-33.08-.04-2.74.32-5.47 1.07-8.1z"/></svg></svg>